<svg width="21" height="21" viewBox="0 0 21 21" fill="none" xmlns="http://www.w3.org/2000/svg">
<path d="M20.8769 10.2509C20.8773 11.9775 20.4306 13.6749 19.5804 15.1777C18.7302 16.6805 17.5054 17.9375 16.0252 18.8265C14.545 19.7155 12.8599 20.2062 11.1338 20.2507C9.40775 20.2952 7.69956 19.8921 6.17551 19.0806L2.90116 20.172C2.63006 20.2624 2.33914 20.2756 2.061 20.2099C1.78287 20.1443 1.52851 20.0025 1.32644 19.8004C1.12437 19.5983 0.982563 19.344 0.916925 19.0658C0.851287 18.7877 0.864407 18.4968 0.954815 18.2257L2.04627 14.9513C1.33288 13.6101 0.934426 12.1239 0.881152 10.6057C0.827878 9.08746 1.12118 7.57704 1.7388 6.18909C2.35642 4.80113 3.28213 3.57212 4.44565 2.59534C5.60917 1.61855 6.97992 0.91968 8.45387 0.551758C9.92781 0.183836 11.4662 0.156539 12.9523 0.471936C14.4383 0.787334 15.833 1.43714 17.0305 2.37202C18.2279 3.30691 19.1966 4.50231 19.8631 5.86748C20.5296 7.23265 20.8763 8.73172 20.8769 10.2509Z" fill="#393939"/>
</svg>
