<svg width="17" height="13" viewBox="0 0 17 13" fill="none" xmlns="http://www.w3.org/2000/svg">
<path d="M16.1637 2.28827L6.16374 12.2883C6.07664 12.3757 5.97315 12.445 5.85919 12.4923C5.74524 12.5397 5.62306 12.564 5.49967 12.564C5.37628 12.564 5.25411 12.5397 5.14016 12.4923C5.0262 12.445 4.92271 12.3757 4.83561 12.2883L0.460611 7.91327C0.373405 7.82607 0.304229 7.72254 0.257034 7.6086C0.209838 7.49466 0.185547 7.37254 0.185547 7.24921C0.185547 7.12588 0.209838 7.00376 0.257034 6.88982C0.304229 6.77588 0.373405 6.67235 0.460611 6.58515C0.547816 6.49794 0.651345 6.42877 0.765285 6.38157C0.879225 6.33437 1.00135 6.31008 1.12467 6.31008C1.248 6.31008 1.37012 6.33437 1.48406 6.38157C1.598 6.42877 1.70153 6.49794 1.78874 6.58515L5.50045 10.2969L14.8372 0.961709C15.0133 0.785589 15.2522 0.686646 15.5012 0.686646C15.7503 0.686646 15.9892 0.785589 16.1653 0.961709C16.3414 1.13783 16.4404 1.3767 16.4404 1.62577C16.4404 1.87484 16.3414 2.11371 16.1653 2.28983L16.1637 2.28827Z" fill="#00D40E"/>
</svg>
