<svg width="21" height="21" viewBox="0 0 21 21" fill="none" xmlns="http://www.w3.org/2000/svg">
<path d="M20.4678 19.0152C20.5538 19.1295 20.6062 19.2655 20.6192 19.4079C20.6322 19.5503 20.6052 19.6935 20.5413 19.8214C20.4774 19.9493 20.3791 20.0569 20.2574 20.132C20.1358 20.2072 19.9956 20.2469 19.8526 20.2468H1.3941C1.25127 20.2468 1.11126 20.207 0.989762 20.1319C0.868262 20.0568 0.770073 19.9494 0.706197 19.8216C0.64232 19.6939 0.615281 19.5508 0.628108 19.4086C0.640935 19.2663 0.693122 19.1305 0.778821 19.0162C1.45985 18.1031 2.368 17.3842 3.413 16.931C2.84019 16.4082 2.43883 15.7244 2.2616 14.9694C2.08438 14.2144 2.13956 13.4235 2.41992 12.7004C2.70028 11.9773 3.19271 11.3559 3.83257 10.9178C4.47244 10.4796 5.22983 10.2451 6.00535 10.2451C6.78087 10.2451 7.53827 10.4796 8.17813 10.9178C8.81799 11.3559 9.31042 11.9773 9.59078 12.7004C9.87114 13.4235 9.92633 14.2144 9.7491 14.9694C9.57188 15.7244 9.17052 16.4082 8.59771 16.931C9.35164 17.2569 10.0368 17.7231 10.6166 18.3048C11.1964 17.7231 11.8816 17.2569 12.6355 16.931C12.0627 16.4082 11.6613 15.7244 11.4841 14.9694C11.3069 14.2144 11.3621 13.4235 11.6424 12.7004C11.9228 11.9773 12.4152 11.3559 13.0551 10.9178C13.6949 10.4796 14.4523 10.2451 15.2279 10.2451C16.0034 10.2451 16.7608 10.4796 17.4006 10.9178C18.0405 11.3559 18.5329 11.9773 18.8133 12.7004C19.0936 13.4235 19.1488 14.2144 18.9716 14.9694C18.7944 15.7244 18.393 16.4082 17.8202 16.931C18.8701 17.3819 19.7831 18.1006 20.4678 19.0152ZM0.932641 10.0946C1.01344 10.1552 1.10539 10.1993 1.20323 10.2244C1.30107 10.2494 1.40289 10.255 1.50287 10.2407C1.60286 10.2264 1.69905 10.1926 1.78596 10.1411C1.87286 10.0897 1.94878 10.0216 2.00938 9.94079C2.47504 9.31992 3.07886 8.81598 3.77302 8.4689C4.46718 8.12182 5.23262 7.94113 6.00872 7.94113C6.78481 7.94113 7.55025 8.12182 8.24441 8.4689C8.93857 8.81598 9.54239 9.31992 10.008 9.94079C10.0797 10.0363 10.1726 10.1138 10.2794 10.1672C10.3862 10.2206 10.5039 10.2484 10.6233 10.2484C10.7427 10.2484 10.8605 10.2206 10.9673 10.1672C11.0741 10.1138 11.167 10.0363 11.2386 9.94079C11.7043 9.31992 12.3081 8.81598 13.0023 8.4689C13.6964 8.12182 14.4619 7.94113 15.2379 7.94113C16.014 7.94113 16.7795 8.12182 17.4736 8.4689C18.1678 8.81598 18.7716 9.31992 19.2373 9.94079C19.2979 10.0216 19.3739 10.0897 19.4609 10.1411C19.5479 10.1925 19.6441 10.2263 19.7441 10.2406C19.8442 10.2548 19.946 10.2492 20.0439 10.2241C20.1417 10.1989 20.2337 10.1548 20.3145 10.0941C20.3953 10.0335 20.4634 9.95749 20.5148 9.87052C20.5662 9.78355 20.6 9.68731 20.6143 9.58728C20.6285 9.48725 20.6229 9.38539 20.5978 9.28753C20.5727 9.18966 20.5285 9.09771 20.4678 9.01691C19.7868 8.10411 18.8786 7.38553 17.8337 6.93264C18.4065 6.40984 18.8078 5.72607 18.9851 4.97108C19.1623 4.21608 19.1071 3.42514 18.8267 2.70208C18.5464 1.97901 18.054 1.3576 17.4141 0.919424C16.7742 0.481244 16.0168 0.246765 15.2413 0.246765C14.4658 0.246765 13.7084 0.481244 13.0685 0.919424C12.4287 1.3576 11.9362 1.97901 11.6559 2.70208C11.3755 3.42514 11.3203 4.21608 11.4976 4.97108C11.6748 5.72607 12.0761 6.40984 12.649 6.93264C11.895 7.25852 11.2099 7.72473 10.6301 8.30645C10.0502 7.72473 9.3651 7.25852 8.61117 6.93264C9.18398 6.40984 9.58534 5.72607 9.76256 4.97108C9.93979 4.21608 9.8846 3.42514 9.60424 2.70208C9.32388 1.97901 8.83145 1.3576 8.19159 0.919424C7.55173 0.481244 6.79433 0.246765 6.01881 0.246765C5.24329 0.246765 4.4859 0.481244 3.84603 0.919424C3.20617 1.3576 2.71374 1.97901 2.43338 2.70208C2.15302 3.42514 2.09783 4.21608 2.27506 4.97108C2.45229 5.72607 2.85365 6.40984 3.42646 6.93264C2.37656 7.38391 1.46356 8.10296 0.778821 9.01787C0.718221 9.09867 0.674129 9.19061 0.649063 9.28845C0.623996 9.38629 0.618447 9.48811 0.63273 9.5881C0.647014 9.68808 0.680851 9.78428 0.73231 9.87118C0.783769 9.95809 0.851841 10.034 0.932641 10.0946Z" fill="#CFCFCF"/>
</svg>
