<svg width="22" height="22" viewBox="0 0 22 22" fill="none" xmlns="http://www.w3.org/2000/svg">
<path d="M11 0.875C8.99747 0.875 7.0399 1.46882 5.37486 2.58137C3.70981 3.69392 2.41206 5.27523 1.64572 7.12533C0.879387 8.97543 0.678878 11.0112 1.06955 12.9753C1.46023 14.9393 2.42454 16.7435 3.84055 18.1595C5.25656 19.5755 7.06066 20.5398 9.02471 20.9305C10.9888 21.3211 13.0246 21.1206 14.8747 20.3543C16.7248 19.5879 18.3061 18.2902 19.4186 16.6251C20.5312 14.9601 21.125 13.0025 21.125 11C21.122 8.3156 20.0543 5.74199 18.1562 3.84383C16.258 1.94567 13.6844 0.877978 11 0.875ZM11 18.4062C10.1711 17.4361 9.52354 16.3246 9.08844 15.125H12.9153C12.6677 15.8034 12.3537 16.4556 11.9778 17.0722C11.6886 17.5427 11.3616 17.9888 11 18.4062ZM8.51657 12.875C8.33094 11.6319 8.33094 10.3681 8.51657 9.125H13.4853C13.6709 10.3681 13.6709 11.6319 13.4853 12.875H8.51657ZM3.125 11C3.12498 10.3681 3.20147 9.73851 3.35282 9.125H6.24219C6.08595 10.3701 6.08595 11.6299 6.24219 12.875H3.35282C3.20147 12.2615 3.12498 11.6319 3.125 11ZM11 3.59375C11.829 4.56391 12.4765 5.67539 12.9116 6.875H9.08657C9.33417 6.19665 9.6482 5.54441 10.0241 4.92781C10.3127 4.45741 10.6391 4.01125 11 3.59375ZM15.7559 9.125H18.6453C18.9491 10.3565 18.9491 11.6435 18.6453 12.875H15.7578C15.9141 11.6299 15.9141 10.3701 15.7578 9.125H15.7559ZM17.7031 6.875H15.2853C14.9475 5.74098 14.4587 4.65753 13.8322 3.65375C15.4392 4.27759 16.7989 5.40852 17.705 6.875H17.7031ZM8.16782 3.65375C7.54127 4.65753 7.05252 5.74098 6.71469 6.875H4.295C5.20113 5.40852 6.56082 4.27759 8.16782 3.65375ZM4.295 15.125H6.71469C7.05252 16.259 7.54127 17.3425 8.16782 18.3463C6.56082 17.7224 5.20113 16.5915 4.295 15.125ZM13.8322 18.3463C14.4587 17.3425 14.9475 16.259 15.2853 15.125H17.705C16.7989 16.5915 15.4392 17.7224 13.8322 18.3463Z" fill="black"/>
</svg>
