<svg width="265" height="265" viewBox="0 0 265 265" fill="none" xmlns="http://www.w3.org/2000/svg">
<rect width="265" height="265" rx="32.2843" fill="white"/>
<path d="M134.353 130.976C139.326 130.976 143.856 131.401 147.166 132.1C148.813 132.448 150.208 132.873 151.214 133.375C151.715 133.625 152.167 133.918 152.506 134.267C152.848 134.62 153.13 135.093 153.13 135.672C153.13 136.504 152.561 137.107 152 137.505C151.411 137.923 150.608 138.279 149.679 138.585C147.987 139.142 145.696 139.59 143.034 139.899L144.512 206.782C150.283 205.998 156.744 205.264 163.341 205.703L164.008 205.752L164.012 205.752L164.423 205.786H164.427L164.841 205.823C182.38 207.472 199.191 217.515 213.238 227.185L214.582 228.115C221.252 232.75 227.171 237.167 232.418 240.654L232.935 240.996C235.504 242.686 237.843 244.097 239.939 245.132L240.356 245.334C242.4 246.309 244.126 246.87 245.547 247.001H246.807L246.853 247.002L246.892 247.004L246.939 247.007C247.428 247.056 247.797 247.48 247.773 247.976C247.748 248.472 247.339 248.857 246.848 248.858L246.8 248.857L246.787 248.856H245.501C245.474 248.856 245.447 248.855 245.42 248.852C243.678 248.701 241.708 248.035 239.552 247.006L239.118 246.795C236.925 245.712 234.513 244.255 231.914 242.545L231.392 242.199C226.164 238.725 220.096 234.206 213.51 229.629L212.186 228.714C198.036 218.973 181.428 209.118 164.27 207.635L163.86 207.601C157.39 207.093 151.002 207.78 145.162 208.566L144.002 208.725C143.911 208.737 143.824 208.749 143.735 208.761C143.473 208.797 143.208 208.72 143.006 208.549C142.805 208.377 142.686 208.127 142.68 207.863L141.16 139.09C141.15 138.606 141.513 138.195 141.994 138.146C144.953 137.845 147.408 137.379 149.099 136.823C149.951 136.542 150.555 136.256 150.927 135.992C151.159 135.827 151.238 135.718 151.265 135.671C151.251 135.648 151.224 135.611 151.174 135.559C151.037 135.417 150.787 135.236 150.385 135.036C149.585 134.636 148.365 134.25 146.783 133.916C143.632 133.251 139.237 132.832 134.353 132.832C129.468 132.832 125.073 133.251 121.922 133.916C120.34 134.25 119.12 134.636 118.32 135.036C117.918 135.236 117.668 135.417 117.531 135.559C117.481 135.611 117.454 135.648 117.44 135.671C117.468 135.721 117.561 135.849 117.851 136.042C118.285 136.33 118.98 136.635 119.942 136.928C121.853 137.51 124.607 137.981 127.882 138.253C128.369 138.294 128.741 138.705 128.733 139.194L127.581 208.719C127.576 208.997 127.447 209.258 127.228 209.431C127.01 209.604 126.726 209.669 126.454 209.61C108.93 205.77 100.778 204.736 94.7585 204.97L94.1823 204.996C91.4455 205.142 89.1092 205.551 86.4317 206.081L85.2612 206.316C82.2728 206.917 78.7865 207.631 73.925 208.266L73.9217 208.267L72.9378 208.392L72.9348 208.392C51.1158 211.089 30.0732 220.283 18.4407 224.062L18.3948 224.076C17.921 224.203 17.425 223.938 17.2717 223.466C17.1134 222.979 17.3802 222.456 17.8675 222.297L18.4087 222.12C29.9249 218.308 50.9955 209.235 72.7038 206.551L73.6846 206.427L74.5674 206.308C78.9044 205.713 82.0955 205.061 84.8949 204.497L86.0693 204.262C88.7689 203.727 91.2146 203.296 94.0836 203.143L94.6858 203.116C100.836 202.877 108.975 203.913 125.744 207.556L126.863 140.024C123.885 139.737 121.305 139.283 119.402 138.703C118.366 138.388 117.476 138.02 116.825 137.588C116.233 137.195 115.615 136.595 115.577 135.754L115.575 135.672L115.578 135.565C115.61 135.035 115.879 134.598 116.199 134.267C116.538 133.918 116.99 133.625 117.491 133.375C118.497 132.873 119.892 132.448 121.539 132.1C124.849 131.401 129.379 130.976 134.353 130.976Z" fill="url(#paint0_linear_522_6557)"/>
<path d="M179.874 165.818C179.876 165.836 180.673 170.942 182.88 173.944C185.088 176.945 190.985 176.95 191.006 176.95C190.985 176.95 185.088 176.956 182.88 179.957C180.669 182.964 179.874 188.083 179.874 188.083C179.874 188.083 179.079 182.79 176.867 179.957C174.655 177.124 168.741 176.95 168.741 176.95C168.741 176.95 174.655 176.95 176.867 173.944C179.074 170.943 179.87 165.839 179.874 165.818Z" fill="url(#paint1_linear_522_6557)"/>
<path d="M63.901 144.372C63.9057 144.402 65.2218 152.77 68.8706 157.689C72.5202 162.609 82.2702 162.617 82.3008 162.617C82.2702 162.617 72.5201 162.625 68.8706 167.545C65.2154 172.473 63.901 180.862 63.901 180.862C63.901 180.862 62.5867 172.188 58.9314 167.545C55.2762 162.902 45.5013 162.617 45.5013 162.617C45.5013 162.617 55.2761 162.617 58.9314 157.689C62.5794 152.771 63.8957 144.406 63.901 144.372Z" fill="url(#paint2_linear_522_6557)"/>
<path d="M218.204 129.219C218.209 129.249 219.271 136.053 222.213 140.054C225.162 144.063 233.048 144.063 233.048 144.063C233.048 144.063 225.162 144.063 222.213 148.072C219.264 152.081 218.204 158.906 218.204 158.906C218.204 158.906 217.144 151.849 214.195 148.072C211.254 144.304 203.401 144.064 203.361 144.063C203.4 144.063 211.254 144.053 214.195 140.054C217.139 136.051 218.201 129.241 218.204 129.219Z" fill="url(#paint3_linear_522_6557)"/>
<path fill-rule="evenodd" clip-rule="evenodd" d="M134.762 111.35C140.193 111.427 145.587 112.799 152.285 115.398L152.378 115.438C152.835 115.657 153.13 116.12 153.13 116.632V128.731C153.13 129.134 152.947 129.514 152.632 129.765C152.338 130 151.958 130.099 151.586 130.037L151.512 130.022C144.906 128.519 139.757 127.761 134.673 127.717L134.181 127.714C129.264 127.716 124.313 128.384 118.065 129.741L116.791 130.024C116.4 130.11 115.989 130.016 115.675 129.765C115.361 129.513 115.178 129.132 115.178 128.731V116.632L115.182 116.53C115.222 116.021 115.552 115.576 116.034 115.394L116.688 115.149C123.399 112.653 128.804 111.352 134.236 111.346L134.762 111.35ZM133.742 113.206C128.702 113.289 123.574 114.547 117.034 117V128.069L117.664 127.93L117.668 127.929L118.257 127.802C124.311 126.513 129.244 125.861 134.181 125.859L134.69 125.861C139.784 125.906 144.901 126.643 151.275 128.067V116.997C144.63 114.444 139.436 113.196 134.238 113.202L133.742 113.206Z" fill="url(#paint4_linear_522_6557)"/>
<path fill-rule="evenodd" clip-rule="evenodd" d="M121.863 105.473C131.878 103.875 138.139 103.962 148.687 106.011L148.744 106.023C149.336 106.166 149.758 106.696 149.758 107.31V110.881C149.758 111.269 149.588 111.638 149.292 111.89C149.014 112.126 148.652 112.237 148.293 112.198L148.221 112.188C137.635 110.461 131.607 110.467 121.29 112.033L120.278 112.189C119.896 112.249 119.507 112.139 119.213 111.888C118.919 111.637 118.748 111.268 118.748 110.881V107.112L118.75 107.052C118.778 106.434 119.232 105.914 119.848 105.807L119.851 105.807L120.88 105.633L120.882 105.633L121.863 105.473ZM147.903 107.75C137.501 105.761 131.429 105.761 121.189 107.462L120.604 107.561V110.261C131.148 108.638 137.354 108.577 147.903 110.258V107.75Z" fill="url(#paint5_linear_522_6557)"/>
<path fill-rule="evenodd" clip-rule="evenodd" d="M134.924 97.0155C137.709 97.0499 140.528 97.3246 144.302 97.8279L145.126 97.9393L145.127 97.9396L146.038 98.0659L146.091 98.0749L146.134 98.0834L146.183 98.0942L146.244 98.1115C146.526 98.1979 146.773 98.3769 146.943 98.6218L146.979 98.6753L147.042 98.7813C147.63 99.8018 147.509 100.823 147.164 101.603L147.089 101.761C146.701 102.535 146.082 103.117 145.624 103.438C145.429 103.574 145.201 103.655 144.966 103.673L144.864 103.677H123.444C123.256 103.677 123.069 103.637 122.899 103.559C122.879 103.551 122.86 103.541 122.841 103.531L122.791 103.504C122.771 103.493 122.752 103.482 122.733 103.47C121.628 102.767 121.012 101.85 120.907 100.838L120.899 100.74C120.83 99.7697 121.249 98.9687 121.654 98.5056L121.681 98.4757L121.706 98.4497L121.737 98.4195C121.937 98.2283 122.194 98.1033 122.471 98.0652H122.473L123.402 97.9393L123.403 97.939L124.242 97.8279C128.361 97.2888 131.345 97.0119 134.328 97.0119L134.924 97.0155ZM133.754 98.871C130.882 98.9063 127.904 99.2069 123.649 99.7781L122.944 99.8736C122.825 100.064 122.729 100.326 122.749 100.61L122.756 100.674C122.796 100.982 122.987 101.394 123.605 101.821H144.687C144.945 101.614 145.247 101.295 145.431 100.929C145.603 100.585 145.66 100.23 145.511 99.866L144.872 99.7775C140.423 99.1685 137.382 98.8673 134.328 98.8673L133.754 98.871Z" fill="url(#paint6_linear_522_6557)"/>
<path fill-rule="evenodd" clip-rule="evenodd" d="M135.39 16.1433L135.429 16.1452L135.474 16.1485L135.534 16.1557C136.132 16.242 136.604 16.7267 136.663 17.3389L136.667 17.4005L140.323 90.9162C140.733 90.9619 141.155 91.0113 141.593 91.0648L142.334 91.1569L142.337 91.1575L143.819 91.3508L143.866 91.358L143.908 91.3659L143.962 91.3773C144.266 91.4519 144.534 91.6318 144.718 91.8853L144.754 91.9372L144.813 92.0318C145.365 92.9453 145.247 93.8685 144.928 94.5561L144.859 94.695C144.659 95.0755 144.393 95.3978 144.128 95.6541C144.065 95.8846 143.928 96.0355 143.839 96.1123C143.734 96.2026 143.634 96.2481 143.588 96.2672C143.535 96.2894 143.489 96.3022 143.462 96.3092C143.433 96.3166 143.408 96.3216 143.391 96.3246C143.358 96.3304 143.331 96.3332 143.316 96.3345L143.221 96.3388H125.455C125.387 96.3388 125.228 96.3323 125.083 96.3219C125.009 96.3165 124.921 96.3087 124.841 96.298C124.802 96.2928 124.749 96.2852 124.695 96.2732C124.679 96.2698 124.561 96.2468 124.429 96.179L124.372 96.147C123.42 95.5697 122.831 94.7797 122.73 93.8546L122.722 93.7646C122.656 92.8827 123.056 92.1701 123.425 91.7678L123.457 91.7343L123.482 91.7098L123.508 91.686L123.584 91.621C123.768 91.4769 123.99 91.3818 124.228 91.3505L124.231 91.3499L125.742 91.1572L125.745 91.1566L126.493 91.0651C126.937 91.0117 127.366 90.9622 127.78 90.9165L131.245 17.4042L131.248 17.3564L131.252 17.3175L131.257 17.2746L131.267 17.2148C131.386 16.6008 131.925 16.1422 132.568 16.1421H135.344L135.39 16.1433ZM143.066 96.3222C143.069 96.3226 143.071 96.3228 143.071 96.3228C143.07 96.3224 143.066 96.3215 143.06 96.3206C143.063 96.3212 143.066 96.3222 143.066 96.3222ZM129.597 91.7986C129.575 92.2574 129.221 92.6314 128.764 92.678C127.905 92.7656 126.985 92.8717 125.976 92.9972L124.69 93.1618C124.615 93.2907 124.559 93.456 124.572 93.6275L124.576 93.6683C124.603 93.8617 124.728 94.1511 125.192 94.4685C125.2 94.4691 125.208 94.4703 125.217 94.4709C125.273 94.475 125.332 94.4785 125.38 94.4806C125.404 94.4817 125.425 94.4823 125.44 94.4827C125.458 94.4833 125.461 94.4833 125.455 94.4833H142.651C142.852 94.3257 143.08 94.0924 143.217 93.8307L143.246 93.773C143.308 93.6395 143.34 93.5109 143.341 93.3934C143.343 93.321 143.332 93.2417 143.302 93.1543L142.097 92.9972C141.101 92.8709 140.191 92.7641 139.341 92.6762C138.886 92.6291 138.533 92.2568 138.51 91.7995L134.839 17.9976H133.074L129.597 91.7986Z" fill="url(#paint7_linear_522_6557)"/>
<defs>
<linearGradient id="paint0_linear_522_6557" x1="91.8834" y1="105.933" x2="174.875" y2="208.898" gradientUnits="userSpaceOnUse">
<stop stop-color="#185AE0"/>
<stop offset="1" stop-color="#CCDAF7"/>
</linearGradient>
<linearGradient id="paint1_linear_522_6557" x1="91.8834" y1="105.933" x2="174.875" y2="208.898" gradientUnits="userSpaceOnUse">
<stop stop-color="#185AE0"/>
<stop offset="1" stop-color="#CCDAF7"/>
</linearGradient>
<linearGradient id="paint2_linear_522_6557" x1="91.8834" y1="105.933" x2="174.875" y2="208.898" gradientUnits="userSpaceOnUse">
<stop stop-color="#185AE0"/>
<stop offset="1" stop-color="#CCDAF7"/>
</linearGradient>
<linearGradient id="paint3_linear_522_6557" x1="91.8834" y1="105.933" x2="174.875" y2="208.898" gradientUnits="userSpaceOnUse">
<stop stop-color="#185AE0"/>
<stop offset="1" stop-color="#CCDAF7"/>
</linearGradient>
<linearGradient id="paint4_linear_522_6557" x1="91.8834" y1="105.933" x2="174.875" y2="208.898" gradientUnits="userSpaceOnUse">
<stop stop-color="#185AE0"/>
<stop offset="1" stop-color="#CCDAF7"/>
</linearGradient>
<linearGradient id="paint5_linear_522_6557" x1="91.8834" y1="105.933" x2="174.875" y2="208.898" gradientUnits="userSpaceOnUse">
<stop stop-color="#185AE0"/>
<stop offset="1" stop-color="#CCDAF7"/>
</linearGradient>
<linearGradient id="paint6_linear_522_6557" x1="91.8834" y1="105.933" x2="174.875" y2="208.898" gradientUnits="userSpaceOnUse">
<stop stop-color="#185AE0"/>
<stop offset="1" stop-color="#CCDAF7"/>
</linearGradient>
<linearGradient id="paint7_linear_522_6557" x1="91.8834" y1="105.933" x2="174.875" y2="208.898" gradientUnits="userSpaceOnUse">
<stop stop-color="#185AE0"/>
<stop offset="1" stop-color="#CCDAF7"/>
</linearGradient>
</defs>
</svg>
