<svg width="33" height="32" viewBox="0 0 33 32" fill="none" xmlns="http://www.w3.org/2000/svg">
<rect x="1.25" y="0.75" width="30.5" height="30.5" rx="15.25" stroke="#CC4E00" stroke-width="1.5"/>
<path d="M23.5002 14.125C23.5012 14.6012 23.4079 15.0728 23.2255 15.5126C23.0431 15.9525 22.7753 16.3518 22.4377 16.6875L16.8564 22.3513C16.8099 22.3985 16.7544 22.436 16.6933 22.4616C16.6321 22.4872 16.5665 22.5004 16.5002 22.5004C16.4339 22.5004 16.3682 22.4872 16.307 22.4616C16.2459 22.436 16.1904 22.3985 16.1439 22.3513L10.5627 16.6875C9.88221 16.0079 9.49961 15.0858 9.49902 14.1241C9.49844 13.1624 9.87991 12.2398 10.5595 11.5594C11.2391 10.8789 12.1612 10.4963 13.1229 10.4957C14.0847 10.4952 15.0072 10.8766 15.6877 11.5563L16.5002 12.3156L17.3183 11.5538C17.8261 11.0485 18.4721 10.705 19.175 10.5666C19.8778 10.4283 20.6059 10.5013 21.2673 10.7764C21.9287 11.0515 22.4938 11.5163 22.8912 12.1123C23.2886 12.7083 23.5005 13.4087 23.5002 14.125Z" fill="#CC4E00"/>
</svg>
