<svg width="33" height="32" viewBox="0 0 33 32" fill="none" xmlns="http://www.w3.org/2000/svg">
<rect x="1.25" y="0.75" width="30.5" height="30.5" rx="15.25" stroke="black" stroke-width="1.5"/>
<path d="M22.6154 11.3832C21.8897 10.6595 20.907 10.2525 19.8821 10.251C18.8572 10.2495 17.8734 10.6536 17.1454 11.375L16.5004 11.9738L15.8554 11.375C15.1277 10.6492 14.1415 10.2421 13.1137 10.2434C12.0859 10.2447 11.1007 10.6542 10.3748 11.3819C9.64894 12.1096 9.24188 13.0958 9.24317 14.1237C9.24446 15.1515 9.65399 16.1367 10.3817 16.8625L15.9661 22.5282C16.0358 22.599 16.119 22.6553 16.2108 22.6937C16.3025 22.7321 16.401 22.7519 16.5004 22.7519C16.5999 22.7519 16.6984 22.7321 16.7901 22.6937C16.8818 22.6553 16.965 22.599 17.0348 22.5282L22.6154 16.8663C22.9754 16.5064 23.261 16.0792 23.4559 15.609C23.6507 15.1387 23.751 14.6347 23.751 14.1257C23.751 13.6167 23.6507 13.1126 23.4559 12.6424C23.261 12.1721 22.9754 11.7449 22.6154 11.385V11.3832ZM21.5529 15.8075L16.5004 20.9313L11.4461 15.8032C11.0022 15.3575 10.7533 14.7539 10.7539 14.1248C10.7546 13.4958 11.0047 12.8927 11.4495 12.4479C11.8943 12.0031 12.4974 11.7529 13.1264 11.7523C13.7555 11.7516 14.3591 12.0005 14.8048 12.4444C14.8111 12.4507 14.8173 12.4569 14.8242 12.4625L15.9892 13.5475C16.128 13.6769 16.3107 13.7488 16.5004 13.7488C16.6902 13.7488 16.8729 13.6769 17.0117 13.5475L18.1767 12.4625C18.1836 12.4569 18.1898 12.4507 18.1961 12.4444C18.4169 12.2241 18.6789 12.0495 18.9673 11.9305C19.2556 11.8115 19.5645 11.7504 19.8764 11.7508C20.1883 11.7511 20.4971 11.813 20.7852 11.9327C21.0732 12.0524 21.3348 12.2277 21.5551 12.4485C21.7754 12.6693 21.95 12.9314 22.0691 13.2197C22.1881 13.508 22.2491 13.8169 22.2488 14.1289C22.2484 14.4408 22.1866 14.7496 22.0669 15.0376C21.9472 15.3256 21.7719 15.5873 21.5511 15.8075H21.5529Z" fill="black"/>
</svg>
