<svg width="40" height="40" viewBox="0 0 40 40" fill="none" xmlns="http://www.w3.org/2000/svg">
<rect width="40" height="40" rx="20" fill="#EFEFEF"/>
<path d="M29.1727 13.0746C28.084 11.9892 26.61 11.3786 25.0727 11.3763C23.5353 11.3741 22.0595 11.9802 20.9677 13.0625L20.0002 13.9606L19.0327 13.0625C17.9411 11.9737 16.4618 11.3631 14.9201 11.365C13.3783 11.3669 11.9005 11.9812 10.8117 13.0728C9.72292 14.1643 9.11233 15.6436 9.11426 17.1854C9.1162 18.7271 9.7305 20.2049 10.822 21.2937L19.1986 29.7921C19.3033 29.8984 19.428 29.9828 19.5657 30.0405C19.7033 30.0981 19.851 30.1278 20.0002 30.1278C20.1493 30.1278 20.297 30.0981 20.4347 30.0405C20.5723 29.9828 20.697 29.8984 20.8017 29.7921L29.1727 21.2993C29.7127 20.7596 30.141 20.1187 30.4333 19.4133C30.7255 18.7079 30.876 17.9519 30.876 17.1884C30.876 16.4249 30.7255 15.6688 30.4333 14.9635C30.141 14.2581 29.7127 13.6172 29.1727 13.0775V13.0746ZM27.5789 19.7112L20.0002 27.3968L12.4186 19.7046C11.7528 19.0361 11.3794 18.1307 11.3804 17.1871C11.3814 16.2436 11.7566 15.3389 12.4238 14.6717C13.091 14.0045 13.9956 13.6293 14.9392 13.6283C15.8827 13.6273 16.7881 14.0007 17.4567 14.6665C17.4661 14.6759 17.4755 14.6853 17.4858 14.6937L19.2333 16.3212C19.4415 16.5152 19.7155 16.6231 20.0002 16.6231C20.2848 16.6231 20.5588 16.5152 20.767 16.3212L22.5145 14.6937C22.5248 14.6853 22.5342 14.6759 22.5436 14.6665C22.8748 14.3361 23.2679 14.0741 23.7004 13.8956C24.1329 13.7171 24.5963 13.6255 25.0642 13.626C25.532 13.6266 25.9952 13.7193 26.4273 13.8989C26.8593 14.0785 27.2517 14.3414 27.5822 14.6726C27.9126 15.0038 28.1746 15.3969 28.3531 15.8294C28.5316 16.2619 28.6232 16.7253 28.6227 17.1932C28.6221 17.661 28.5294 18.1242 28.3498 18.5563C28.1702 18.9883 27.9073 19.3808 27.5761 19.7112H27.5789Z" fill="black"/>
</svg>
