<svg width="22" height="19" viewBox="0 0 22 19" fill="none" xmlns="http://www.w3.org/2000/svg">
<path d="M21.5002 6.18754C21.5018 6.90177 21.3618 7.60923 21.0882 8.269C20.8147 8.92877 20.413 9.52775 19.9065 10.0313L11.5346 18.5269C11.4648 18.5978 11.3816 18.6541 11.2899 18.6925C11.1982 18.7309 11.0997 18.7507 11.0002 18.7507C10.9008 18.7507 10.8023 18.7309 10.7106 18.6925C10.6188 18.6541 10.5356 18.5978 10.4659 18.5269L2.09398 10.0313C1.07332 9.01186 0.499415 7.62873 0.498536 6.18617C0.497657 4.7436 1.06987 3.35977 2.0893 2.3391C3.10872 1.31843 4.49185 0.744532 5.93442 0.743653C7.37698 0.742774 8.76081 1.31499 9.78148 2.33441L11.0002 3.47348L12.2274 2.33066C12.9891 1.57278 13.9582 1.05754 15.0125 0.850005C16.0667 0.642468 17.1588 0.751931 18.1509 1.16458C19.143 1.57722 19.9906 2.27455 20.5867 3.16853C21.1828 4.0625 21.5007 5.11305 21.5002 6.18754Z" fill="#CC4E00"/>
</svg>
