<svg width="40" height="40" viewBox="0 0 40 40" fill="none" xmlns="http://www.w3.org/2000/svg">
<rect width="40" height="40" rx="20" fill="#EFEFEF"/>
<path d="M30.5002 17.1875C30.5018 17.9018 30.3618 18.6092 30.0882 19.269C29.8147 19.9288 29.413 20.5277 28.9065 21.0313L20.5346 29.5269C20.4648 29.5978 20.3816 29.6541 20.2899 29.6925C20.1982 29.7309 20.0997 29.7507 20.0002 29.7507C19.9008 29.7507 19.8023 29.7309 19.7106 29.6925C19.6188 29.6541 19.5356 29.5978 19.4659 29.5269L11.094 21.0313C10.0733 20.0119 9.49942 18.6287 9.49854 17.1862C9.49766 15.7436 10.0699 14.3598 11.0893 13.3391C12.1087 12.3184 13.4919 11.7445 14.9344 11.7437C16.377 11.7428 17.7608 12.315 18.7815 13.3344L20.0002 14.4735L21.2274 13.3307C21.9891 12.5728 22.9582 12.0575 24.0125 11.85C25.0667 11.6425 26.1588 11.7519 27.1509 12.1646C28.143 12.5772 28.9906 13.2746 29.5867 14.1685C30.1828 15.0625 30.5007 16.113 30.5002 17.1875Z" fill="#CC4E00"/>
</svg>
