<svg width="21" height="20" viewBox="0 0 21 20" fill="none" xmlns="http://www.w3.org/2000/svg">
<path d="M20.875 9.59961V19.2C20.875 19.4122 20.7872 19.6156 20.6309 19.7657C20.4746 19.9157 20.2627 20 20.0417 20H14.2083C13.9873 20 13.7754 19.9157 13.6191 19.7657C13.4628 19.6156 13.375 19.4122 13.375 19.2V13.9998C13.375 13.8937 13.3311 13.7919 13.253 13.7169C13.1748 13.6419 13.0688 13.5998 12.9583 13.5998H8.79167C8.68116 13.5998 8.57518 13.6419 8.49704 13.7169C8.4189 13.7919 8.375 13.8937 8.375 13.9998V19.2C8.375 19.4122 8.2872 19.6156 8.13092 19.7657C7.97464 19.9157 7.76268 20 7.54167 20H1.70833C1.48732 20 1.27536 19.9157 1.11908 19.7657C0.962798 19.6156 0.875 19.4122 0.875 19.2V9.59961C0.875205 9.17533 1.05093 8.76849 1.36354 8.46857L9.69687 0.468276C10.0094 0.168433 10.4332 0 10.875 0C11.3168 0 11.7406 0.168433 12.0531 0.468276L20.3865 8.46857C20.6991 8.76849 20.8748 9.17533 20.875 9.59961Z" fill="#CFCFCF"/>
</svg>
