<svg width="23" height="22" viewBox="0 0 23 22" fill="none" xmlns="http://www.w3.org/2000/svg">
<path d="M11.3799 0.25C13.4351 0.25 15.336 0.649994 17.0825 1.44998C18.829 2.24997 20.2098 3.3378 21.2247 4.71344C22.2396 6.08903 22.7471 7.58955 22.7471 9.21494C22.7471 10.8403 22.2396 12.3429 21.2247 13.7228C20.2098 15.1027 18.8311 16.1926 17.0888 16.9926C15.3465 17.7925 13.4436 18.1926 11.3799 18.1926C10.7286 18.1926 10.0562 18.146 9.36271 18.0529C6.35174 20.1438 4.74904 21.202 4.55451 21.2274C4.46146 21.2613 4.37263 21.257 4.28807 21.2147C4.25423 21.1893 4.22887 21.1555 4.21195 21.1131C4.19502 21.0708 4.18659 21.0327 4.18659 20.9988V20.9481C4.23735 20.6179 4.62215 19.2423 5.34107 16.8212C3.70872 16.0085 2.41257 14.9313 1.45262 13.5895C0.492672 12.2477 0.0126953 10.7895 0.0126953 9.21494C0.0126953 7.58955 0.520159 6.08903 1.53509 4.71344C2.55002 3.3378 3.93074 2.24997 5.67726 1.44998C7.42377 0.649994 9.32465 0.25 11.3799 0.25Z" fill="black"/>
</svg>
