<svg width="343" height="394" viewBox="0 0 343 394" fill="none" xmlns="http://www.w3.org/2000/svg">
<path d="M174.143 171.735C181.537 171.735 188.272 172.366 193.194 173.405C195.643 173.922 197.717 174.555 199.212 175.301C199.957 175.673 200.63 176.108 201.133 176.627C201.642 177.152 202.061 177.855 202.061 178.717C202.061 179.953 201.216 180.85 200.382 181.442C199.505 182.064 198.312 182.592 196.931 183.047C194.415 183.875 191.008 184.542 187.05 185L189.248 284.442C197.827 283.276 207.434 282.185 217.242 282.838L218.234 282.91L218.24 282.91L218.852 282.961H218.857L219.473 283.017C245.55 285.467 270.544 300.399 291.43 314.777L293.428 316.16C303.344 323.05 312.144 329.618 319.946 334.802L320.715 335.311C324.534 337.824 328.012 339.921 331.128 341.46L331.747 341.761C334.787 343.21 337.354 344.045 339.466 344.239H341.339L341.407 344.24L341.465 344.243L341.536 344.249C342.262 344.322 342.811 344.952 342.775 345.689C342.738 346.426 342.13 346.999 341.4 347L341.329 346.998L341.309 346.997H339.398C339.358 346.997 339.317 346.995 339.278 346.992C336.687 346.766 333.758 345.777 330.552 344.247L329.907 343.933C326.646 342.323 323.061 340.156 319.197 337.614L318.42 337.1C310.647 331.935 301.625 325.216 291.834 318.411L289.865 317.05C268.827 302.567 244.134 287.915 218.624 285.71L218.014 285.66C208.395 284.904 198.897 285.926 190.215 287.095L188.489 287.33C188.355 287.349 188.225 287.366 188.092 287.385C187.703 287.438 187.308 287.324 187.009 287.069C186.71 286.813 186.533 286.442 186.525 286.049L184.265 183.797C184.249 183.078 184.788 182.468 185.504 182.395C189.904 181.947 193.554 181.254 196.068 180.427C197.334 180.01 198.232 179.584 198.785 179.192C199.131 178.947 199.249 178.784 199.287 178.715C199.267 178.68 199.227 178.625 199.152 178.548C198.949 178.338 198.578 178.068 197.98 177.77C196.79 177.176 194.977 176.601 192.624 176.105C187.94 175.116 181.405 174.493 174.143 174.493C166.88 174.493 160.345 175.116 155.662 176.105C153.309 176.601 151.496 177.176 150.305 177.77C149.707 178.068 149.337 178.338 149.133 178.548C149.058 178.625 149.018 178.68 148.998 178.715C149.039 178.789 149.177 178.98 149.609 179.266C150.254 179.695 151.287 180.148 152.717 180.584C155.558 181.449 159.652 182.149 164.522 182.554C165.246 182.614 165.799 183.226 165.787 183.952L164.074 287.321C164.067 287.735 163.875 288.124 163.551 288.38C163.226 288.637 162.804 288.734 162.4 288.646C136.345 282.937 124.224 281.4 115.275 281.747L114.418 281.786C110.349 282.003 106.875 282.612 102.894 283.4L101.154 283.749C96.711 284.643 91.5276 285.704 84.2996 286.649L84.2946 286.65L82.8318 286.835L82.8273 286.836C50.387 290.846 19.1011 304.516 1.80588 310.134L1.73763 310.154C1.03316 310.344 0.295802 309.95 0.0678013 309.248C-0.167476 308.524 0.229214 307.745 0.953676 307.51L1.75828 307.246C18.8806 301.579 50.2081 288.089 82.4838 284.099L83.9422 283.913L85.2546 283.737C91.7028 282.852 96.4473 281.882 100.609 281.044L102.356 280.695C106.369 279.899 110.006 279.259 114.271 279.032L115.166 278.991C124.311 278.636 136.411 280.176 161.344 285.593L163.007 185.187C158.58 184.76 154.744 184.085 151.914 183.223C150.373 182.754 149.05 182.207 148.083 181.564C147.203 180.98 146.284 180.088 146.227 178.839L146.225 178.717L146.229 178.557C146.277 177.768 146.676 177.119 147.153 176.627C147.656 176.108 148.328 175.673 149.074 175.301C150.569 174.555 152.643 173.922 155.092 173.405C160.013 172.366 166.748 171.735 174.143 171.735Z" fill="url(#paint0_linear_522_6376)"/>
<path d="M241.823 223.537C241.827 223.563 243.011 231.155 246.294 235.618C249.576 240.08 258.343 240.089 258.375 240.089C258.343 240.089 249.576 240.097 246.294 244.559C243.006 249.029 241.823 256.641 241.823 256.641C241.823 256.641 240.641 248.771 237.353 244.559C234.065 240.347 225.271 240.089 225.271 240.089C225.271 240.089 234.065 240.088 237.353 235.618C240.634 231.157 241.818 223.568 241.823 223.537Z" fill="url(#paint1_linear_522_6376)"/>
<path d="M69.396 191.651C69.4029 191.695 71.3597 204.138 76.7847 211.451C82.2108 218.766 96.7072 218.778 96.7526 218.778C96.7072 218.778 82.2108 218.79 76.7847 226.105C71.3502 233.432 69.396 245.905 69.396 245.905C69.396 245.905 67.4418 233.008 62.0072 226.105C56.5726 219.202 42.0393 218.778 42.0393 218.778C42.0393 218.778 56.5725 218.778 62.0072 211.451C67.431 204.139 69.3881 191.701 69.396 191.651Z" fill="url(#paint2_linear_522_6376)"/>
<path d="M298.813 169.122C298.82 169.166 300.398 179.283 304.773 185.231C309.157 191.191 320.882 191.192 320.882 191.192C320.882 191.192 309.157 191.191 304.773 197.152C300.389 203.113 298.813 213.261 298.813 213.261C298.813 213.261 297.236 202.768 292.852 197.152C288.479 191.551 276.803 191.193 276.743 191.192C276.802 191.192 288.479 191.176 292.852 185.231C297.229 179.279 298.808 169.154 298.813 169.122Z" fill="url(#paint3_linear_522_6376)"/>
<path fill-rule="evenodd" clip-rule="evenodd" d="M174.751 142.554C182.826 142.669 190.847 144.709 200.804 148.573L200.943 148.632C201.622 148.957 202.061 149.646 202.061 150.408V168.396C202.061 168.995 201.788 169.561 201.321 169.934C200.884 170.283 200.318 170.431 199.766 170.338L199.656 170.316C189.834 168.081 182.178 166.954 174.619 166.888L173.888 166.885C166.577 166.887 159.215 167.881 149.927 169.898L148.032 170.318C147.451 170.447 146.84 170.307 146.374 169.934C145.906 169.559 145.635 168.992 145.635 168.396V150.408L145.64 150.256C145.699 149.499 146.19 148.838 146.907 148.567L147.879 148.202C157.857 144.491 165.893 142.557 173.969 142.549L174.751 142.554ZM173.235 145.314C165.742 145.436 158.117 147.308 148.393 150.955V167.412L149.33 167.205L149.336 167.203L150.212 167.015C159.213 165.098 166.548 164.129 173.887 164.126L174.645 164.13C182.219 164.196 189.827 165.292 199.303 167.408V150.95C189.423 147.155 181.701 145.299 173.972 145.307L173.235 145.314Z" fill="url(#paint4_linear_522_6376)"/>
<path fill-rule="evenodd" clip-rule="evenodd" d="M155.574 133.816C170.463 131.441 179.772 131.57 195.455 134.616L195.54 134.635C196.421 134.846 197.048 135.635 197.048 136.548V141.857C197.048 142.434 196.795 142.983 196.354 143.357C195.941 143.708 195.403 143.872 194.869 143.815L194.762 143.801C179.023 141.233 170.061 141.241 154.722 143.57L153.217 143.802C152.649 143.892 152.07 143.728 151.633 143.354C151.196 142.98 150.943 142.433 150.943 141.857V136.254L150.945 136.164C150.986 135.246 151.662 134.471 152.577 134.314L152.582 134.313L154.111 134.055L154.115 134.054L155.574 133.816ZM194.29 137.202C178.824 134.244 169.797 134.244 154.571 136.774L153.701 136.921V140.936C169.378 138.522 178.606 138.431 194.29 140.931V137.202Z" fill="url(#paint5_linear_522_6376)"/>
<path fill-rule="evenodd" clip-rule="evenodd" d="M174.993 121.242C179.133 121.293 183.324 121.701 188.935 122.45L190.16 122.615L190.162 122.616L191.517 122.804L191.596 122.817L191.66 122.83L191.732 122.846L191.823 122.871C192.242 123 192.61 123.266 192.863 123.63L192.915 123.71L193.009 123.867C193.884 125.385 193.704 126.903 193.19 128.063L193.079 128.298C192.502 129.448 191.582 130.313 190.9 130.79C190.611 130.993 190.273 131.113 189.922 131.14L189.771 131.146H157.925C157.644 131.146 157.367 131.086 157.113 130.971C157.084 130.958 157.055 130.944 157.027 130.929L156.953 130.889C156.924 130.873 156.895 130.856 156.867 130.838C155.225 129.793 154.308 128.429 154.152 126.926L154.14 126.78C154.038 125.337 154.661 124.146 155.263 123.457L155.303 123.413L155.34 123.374L155.386 123.329C155.683 123.045 156.065 122.859 156.478 122.803H156.48L157.861 122.615L157.863 122.615L159.11 122.45C165.234 121.648 169.672 121.237 174.106 121.237L174.993 121.242ZM173.253 124.001C168.983 124.053 164.556 124.5 158.23 125.349L157.18 125.491C157.003 125.774 156.861 126.165 156.891 126.585L156.901 126.681C156.961 127.14 157.244 127.752 158.163 128.387H189.507C189.891 128.079 190.341 127.605 190.614 127.061C190.87 126.549 190.954 126.022 190.733 125.48L189.783 125.348C183.168 124.443 178.647 123.995 174.106 123.995L173.253 124.001Z" fill="url(#paint6_linear_522_6376)"/>
<path fill-rule="evenodd" clip-rule="evenodd" d="M175.685 1.0018L175.744 1.00449L175.81 1.00943L175.899 1.0202C176.788 1.14843 177.49 1.8691 177.577 2.77938L177.584 2.87098L183.02 112.174C183.629 112.241 184.257 112.315 184.908 112.394L186.01 112.531L186.014 112.532L188.217 112.82L188.287 112.83L188.35 112.842L188.43 112.859C188.882 112.97 189.28 113.237 189.554 113.614L189.607 113.692L189.695 113.832C190.516 115.19 190.34 116.563 189.866 117.585L189.764 117.792C189.466 118.358 189.071 118.837 188.676 119.218C188.583 119.56 188.379 119.785 188.247 119.899C188.092 120.033 187.943 120.101 187.874 120.129C187.795 120.162 187.727 120.181 187.687 120.192C187.644 120.203 187.607 120.21 187.581 120.215C187.532 120.223 187.492 120.227 187.47 120.229L187.328 120.236H160.914C160.813 120.236 160.576 120.226 160.361 120.211C160.251 120.203 160.121 120.191 160.001 120.175C159.943 120.167 159.865 120.156 159.784 120.138C159.761 120.133 159.585 120.099 159.389 119.998L159.304 119.951C157.888 119.092 157.012 117.918 156.862 116.542L156.85 116.408C156.753 115.097 157.347 114.038 157.896 113.44L157.944 113.39L157.981 113.353L158.018 113.318L158.132 113.221C158.406 113.007 158.735 112.866 159.09 112.819L159.095 112.818L161.34 112.532L161.345 112.531L162.458 112.395C163.118 112.316 163.755 112.242 164.371 112.174L169.522 2.87637L169.527 2.80543L169.533 2.7475L169.541 2.68375L169.556 2.59484C169.732 1.68198 170.533 1.00003 171.489 1H175.617L175.685 1.0018ZM187.098 120.211C187.103 120.212 187.106 120.212 187.106 120.212C187.104 120.211 187.098 120.21 187.089 120.209C187.093 120.21 187.098 120.211 187.098 120.211ZM167.072 113.485C167.04 114.168 166.513 114.724 165.834 114.793C164.557 114.923 163.189 115.081 161.689 115.268L159.777 115.512C159.664 115.704 159.582 115.95 159.601 116.205L159.607 116.265C159.647 116.553 159.833 116.983 160.523 117.455C160.535 117.456 160.547 117.458 160.56 117.459C160.644 117.465 160.731 117.47 160.803 117.473C160.838 117.475 160.869 117.475 160.891 117.476C160.918 117.477 160.923 117.477 160.914 117.477H186.48C186.779 117.243 187.118 116.896 187.323 116.507L187.366 116.421C187.458 116.223 187.505 116.031 187.507 115.857C187.509 115.749 187.494 115.631 187.449 115.501L185.658 115.268C184.177 115.08 182.824 114.921 181.56 114.79C180.882 114.72 180.358 114.167 180.324 113.487L174.866 3.75865H172.242L167.072 113.485Z" fill="url(#paint7_linear_522_6376)"/>
<path d="M116.011 338.01C116.011 339.325 116.283 340.356 116.827 341.104C117.371 341.852 118.187 342.226 119.275 342.226H126.755C127.843 342.226 128.659 341.852 129.203 341.104C129.747 340.356 130.019 339.325 130.019 338.01V337.67C130.019 336.378 129.793 335.403 129.339 334.746C128.909 334.066 128.229 333.635 127.299 333.454C125.917 333.091 124.489 332.91 123.015 332.91C121.587 332.91 120.159 333.091 118.731 333.454C117.802 333.635 117.111 334.066 116.657 334.746C116.227 335.403 116.011 336.378 116.011 337.67V338.01ZM111.931 337.67C111.931 335.585 112.407 333.862 113.359 332.502C114.334 331.119 115.807 330.224 117.779 329.816C119.525 329.408 121.27 329.204 123.015 329.204C124.806 329.204 126.551 329.408 128.251 329.816C130.223 330.224 131.685 331.119 132.637 332.502C133.612 333.862 134.099 335.585 134.099 337.67V338.01C134.099 339.438 133.827 340.764 133.283 341.988C132.739 343.189 131.912 344.153 130.801 344.878C129.691 345.603 128.342 345.966 126.755 345.966H125.089V352.494H136.819V356.234H109.211V352.494H121.009V345.966H119.275C117.689 345.966 116.34 345.603 115.229 344.878C114.119 344.153 113.291 343.189 112.747 341.988C112.203 340.764 111.931 339.438 111.931 338.01V337.67Z" fill="#2A2A2A"/>
<path d="M139.483 349.978H156.483C156.891 349.978 157.197 349.921 157.401 349.808C157.605 349.695 157.707 349.559 157.707 349.4C157.707 349.287 157.651 349.173 157.537 349.06C157.424 348.924 157.265 348.822 157.061 348.754C156.495 348.573 155.633 348.425 154.477 348.312C153.321 348.176 152.041 348.108 150.635 348.108C147.099 348.108 143.869 348.448 140.945 349.128L139.993 345.456C143.053 344.753 146.51 344.402 150.363 344.402C152.086 344.402 153.65 344.481 155.055 344.64C156.483 344.776 157.583 344.969 158.353 345.218C159.487 345.603 160.337 346.17 160.903 346.918C161.493 347.666 161.787 348.493 161.787 349.4C161.787 350.148 161.572 350.851 161.141 351.508C160.733 352.165 160.121 352.698 159.305 353.106C158.512 353.514 157.571 353.718 156.483 353.718H145.093C144.912 353.899 144.821 354.115 144.821 354.364C144.821 354.727 145.105 355.044 145.671 355.316C146.487 355.679 147.881 355.86 149.853 355.86C151.893 355.86 154.16 355.667 156.653 355.282C159.147 354.897 161.391 354.364 163.385 353.684L164.677 357.22C162.524 357.945 160.11 358.523 157.435 358.954C154.761 359.385 152.267 359.6 149.955 359.6C147.281 359.6 145.286 359.305 143.971 358.716C142.883 358.217 142.067 357.583 141.523 356.812C141.002 356.064 140.741 355.271 140.741 354.432C140.741 354.273 140.764 354.035 140.809 353.718H139.483V349.978ZM164.371 343.178H136.763V339.438H164.371V343.178ZM161.685 336.684C159.94 337.092 158.093 337.409 156.143 337.636C154.217 337.863 152.358 337.976 150.567 337.976C148.369 337.976 146.453 337.795 144.821 337.432C143.189 337.069 141.999 336.514 141.251 335.766C140.571 335.086 140.095 334.417 139.823 333.76C139.574 333.103 139.449 332.298 139.449 331.346C139.449 330.553 139.517 329.601 139.653 328.49L143.733 328.966C143.575 330.235 143.495 331.04 143.495 331.38C143.495 331.811 143.541 332.151 143.631 332.4C143.745 332.649 143.926 332.887 144.175 333.114C144.515 333.454 145.241 333.726 146.351 333.93C147.462 334.111 148.799 334.202 150.363 334.202C152.154 334.202 154.047 334.089 156.041 333.862C158.059 333.613 159.94 333.261 161.685 332.808V336.684Z" fill="#2A2A2A"/>
<path d="M165.199 360.756C165.879 359.759 166.378 358.773 166.695 357.798C167.035 356.846 167.239 355.905 167.307 354.976C167.398 354.047 167.443 352.845 167.443 351.372H172.407C172.362 353.389 171.943 355.509 171.149 357.73C170.379 359.974 169.415 361.685 168.259 362.864L165.199 360.756Z" fill="#2A2A2A"/>
<path d="M203.406 328.66V358.308H199.326V340.594H194.634V336.514H199.326V328.66H203.406ZM190.18 354.772C190.792 353.933 191.358 352.891 191.88 351.644C192.401 350.375 192.662 349.196 192.662 348.108C192.662 346.725 192.186 345.717 191.234 345.082C190.984 347.417 190.293 349.321 189.16 350.794C188.026 352.245 186.338 353.049 184.094 353.208C182.938 353.276 181.929 353.072 181.068 352.596C180.229 352.12 179.583 351.463 179.13 350.624C178.676 349.785 178.45 348.867 178.45 347.87C178.45 346.805 178.71 345.773 179.232 344.776C179.753 343.779 180.546 342.929 181.612 342.226C182.7 341.501 184.026 341.025 185.59 340.798L187.256 340.628V329.544H191.336V340.866C193.217 341.297 194.566 342.147 195.382 343.416C196.198 344.663 196.606 346.159 196.606 347.904C196.606 349.105 196.447 350.318 196.13 351.542C195.812 352.743 195.416 353.82 194.94 354.772H190.18ZM183.822 349.468C184.91 349.4 185.714 348.947 186.236 348.108C186.78 347.269 187.108 346.023 187.222 344.368L186.134 344.47C184.932 344.651 184.026 345.082 183.414 345.762C182.824 346.419 182.53 347.133 182.53 347.904C182.53 348.38 182.643 348.765 182.87 349.06C183.119 349.355 183.437 349.491 183.822 349.468Z" fill="#2A2A2A"/>
<path d="M207.889 349.978H224.889C225.297 349.978 225.603 349.921 225.807 349.808C226.011 349.695 226.113 349.559 226.113 349.4C226.113 349.287 226.056 349.173 225.943 349.06C225.829 348.924 225.671 348.822 225.467 348.754C224.9 348.573 224.039 348.425 222.883 348.312C221.727 348.176 220.446 348.108 219.041 348.108C215.505 348.108 212.275 348.448 209.351 349.128L208.399 345.456C211.028 344.844 213.873 344.504 216.933 344.436V343.314H205.169V339.574H232.777V343.314H221.013V344.436C223.506 344.549 225.421 344.81 226.759 345.218C227.892 345.603 228.742 346.17 229.309 346.918C229.898 347.666 230.193 348.493 230.193 349.4C230.193 350.148 229.977 350.851 229.547 351.508C229.139 352.165 228.527 352.698 227.711 353.106C226.917 353.514 225.977 353.718 224.889 353.718H213.499C213.317 353.899 213.227 354.115 213.227 354.364C213.227 354.727 213.51 355.044 214.077 355.316C214.893 355.679 216.287 355.86 218.259 355.86C220.299 355.86 222.565 355.667 225.059 355.282C227.552 354.897 229.796 354.364 231.791 353.684L233.083 357.22C230.929 357.945 228.515 358.523 225.841 358.954C223.166 359.385 220.673 359.6 218.361 359.6C215.686 359.6 213.691 359.305 212.377 358.716C211.289 358.217 210.473 357.583 209.929 356.812C209.407 356.064 209.147 355.271 209.147 354.432C209.147 354.273 209.169 354.035 209.215 353.718H207.889V349.978ZM211.969 333.624C211.969 334.327 212.717 334.678 214.213 334.678H223.733C225.229 334.678 225.977 334.327 225.977 333.624V333.454C225.977 333.182 225.795 332.967 225.433 332.808C225.093 332.627 224.458 332.491 223.529 332.4C221.897 332.219 220.378 332.128 218.973 332.128C217.567 332.128 216.049 332.219 214.417 332.4C213.487 332.491 212.841 332.627 212.479 332.808C212.139 332.967 211.969 333.182 211.969 333.454V333.624ZM207.889 333.454C207.889 332.207 208.387 331.153 209.385 330.292C210.382 329.431 211.923 328.887 214.009 328.66C215.754 328.479 217.409 328.388 218.973 328.388C220.537 328.388 222.191 328.479 223.937 328.66C226.022 328.887 227.563 329.431 228.561 330.292C229.558 331.153 230.057 332.207 230.057 333.454V333.624C230.057 334.44 229.83 335.211 229.377 335.936C228.946 336.661 228.255 337.262 227.303 337.738C226.351 338.191 225.161 338.418 223.733 338.418H214.213C212.785 338.418 211.595 338.191 210.643 337.738C209.691 337.262 208.988 336.661 208.535 335.936C208.104 335.211 207.889 334.44 207.889 333.624V333.454Z" fill="#2A2A2A"/>
<path d="M107.883 377.529C107.883 379.771 109.141 382 111.014 382.848L110.221 383.887C108.827 383.189 107.781 381.802 107.241 380.127C106.701 381.891 105.628 383.381 104.219 384.119L103.399 383.066C105.299 382.164 106.571 379.799 106.571 377.529V375.438H107.883V377.529ZM113.68 374.412V386.689H112.395V379.539H109.661V378.486H112.395V374.412H113.68ZM120.445 374.549C123.207 374.549 124.82 375.301 124.82 376.654C124.82 378.021 123.207 378.773 120.445 378.773C117.683 378.773 116.07 378.021 116.07 376.654C116.07 375.301 117.683 374.549 120.445 374.549ZM120.445 375.52C118.49 375.533 117.41 375.93 117.424 376.654C117.41 377.42 118.49 377.803 120.445 377.803C122.4 377.803 123.48 377.42 123.48 376.654C123.48 375.93 122.4 375.533 120.445 375.52ZM126.037 379.498V380.523H121.088V381.576H124.629V384.447H117.492V385.541H124.971V386.539H116.221V383.504H123.344V382.547H116.207V381.576H119.789V380.523H114.867V379.498H126.037ZM130.765 377.529C130.751 379.771 132.104 382.014 134.005 382.861L133.226 383.887C131.817 383.217 130.703 381.843 130.136 380.168C129.562 381.959 128.434 383.442 126.964 384.16L126.171 383.066C128.099 382.205 129.452 379.867 129.452 377.529V375.438H130.765V377.529ZM136.411 374.412V386.689H135.112V374.412H136.411ZM151.554 380.537V381.576H146.605V382.861H150.187V386.635H148.874V383.914H141.628V382.861H145.32V381.576H140.384V380.537H151.554ZM146.605 374.371V375.588H150.433V376.613H146.687C146.81 377.83 148.492 378.726 150.939 378.951L150.529 379.922C148.423 379.73 146.714 379.026 145.962 377.871C145.204 379.026 143.495 379.73 141.396 379.922L140.986 378.951C143.419 378.726 145.101 377.83 145.251 376.613H141.505V375.588H145.32V374.371H146.605ZM162.297 374.412V386.662H161.053V374.412H162.297ZM159.809 374.672V386.047H158.579V379.812H156.678V378.746H158.579V374.672H159.809ZM155.475 377.83C155.475 379.922 156.323 382.014 158.046 383.012L157.266 383.969C156.097 383.271 155.291 382.034 154.874 380.551C154.429 382.15 153.595 383.511 152.399 384.256L151.606 383.285C153.342 382.232 154.231 380.004 154.231 377.83V376.846H151.975V375.793H157.581V376.846H155.475V377.83ZM176.114 374.412V381.699H174.815V378.596H172.532V377.529H174.815V374.412H176.114ZM172.013 382.041C174.583 382.041 176.155 382.889 176.155 384.352C176.155 385.814 174.583 386.648 172.013 386.662C169.442 386.648 167.856 385.814 167.87 384.352C167.856 382.889 169.442 382.041 172.013 382.041ZM172.013 383.053C170.222 383.053 169.155 383.518 169.155 384.352C169.155 385.172 170.222 385.65 172.013 385.637C173.804 385.65 174.87 385.172 174.87 384.352C174.87 383.518 173.804 383.053 172.013 383.053ZM170.29 376.572C170.29 378.131 171.397 379.635 173.243 380.264L172.573 381.289C171.199 380.811 170.188 379.833 169.661 378.623C169.121 379.997 168.048 381.098 166.585 381.631L165.901 380.592C167.802 379.936 168.964 378.281 168.964 376.586V376.312H166.312V375.26H172.915V376.312H170.29V376.572ZM188.512 384.064V385.145H177.301V384.064H182.237V381.549H178.586V375.246H179.885V377.352H185.901V375.246H187.186V381.549H183.522V384.064H188.512ZM179.885 380.496H185.901V378.404H179.885V380.496ZM198.244 374.412V379.293H200.144V380.373H198.244V386.648H196.945V374.412H198.244ZM195.044 375.697C195.031 379.238 193.472 382.396 189.439 384.393L188.714 383.381C191.784 381.85 193.452 379.635 193.718 376.777H189.329V375.697H195.044ZM212.443 374.426V378.363H214.221V379.443H212.443V383.586H211.144V374.426H212.443ZM210.133 375.848V376.9H202.832V375.848H205.84V374.412H207.138V375.848H210.133ZM206.482 377.488C208.246 377.488 209.449 378.404 209.449 379.799C209.449 381.193 208.246 382.096 206.482 382.096C204.705 382.096 203.502 381.193 203.502 379.799C203.502 378.404 204.705 377.488 206.482 377.488ZM206.482 378.486C205.443 378.486 204.746 378.992 204.76 379.799C204.746 380.592 205.443 381.084 206.482 381.084C207.521 381.084 208.219 380.592 208.232 379.799C208.219 378.992 207.521 378.486 206.482 378.486ZM212.963 385.35V386.402H204.678V382.861H205.976V385.35H212.963ZM226.848 385.35V386.402H218.344V382.875H219.656V385.35H226.848ZM228.133 380.906V381.973H216.936V380.906H221.871V378.951H223.156V380.906H228.133ZM223.17 375.232C223.17 376.9 225.043 378.363 227.395 378.705L226.889 379.717C224.954 379.375 223.273 378.384 222.514 376.969C221.741 378.384 220.067 379.389 218.139 379.717L217.619 378.705C219.957 378.336 221.844 376.873 221.858 375.232V374.74H223.17V375.232ZM238.876 374.412V386.662H237.632V374.412H238.876ZM236.388 374.645V386.061H235.144V380.154H233.763C233.654 382.547 232.628 384.037 231.111 384.023C229.511 384.037 228.472 382.355 228.472 379.703C228.472 377.051 229.511 375.383 231.111 375.396C232.601 375.383 233.613 376.798 233.763 379.102H235.144V374.645H236.388ZM231.111 376.613C230.222 376.613 229.675 377.748 229.675 379.703C229.675 381.658 230.222 382.793 231.111 382.793C232.013 382.793 232.574 381.658 232.574 379.703C232.574 377.748 232.013 376.613 231.111 376.613Z" fill="#808080"/>
<defs>
<linearGradient id="paint0_linear_522_6376" x1="111" y1="134.5" x2="234.391" y2="287.588" gradientUnits="userSpaceOnUse">
<stop stop-color="#185AE0"/>
<stop offset="1" stop-color="#CCDAF7"/>
</linearGradient>
<linearGradient id="paint1_linear_522_6376" x1="111" y1="134.5" x2="234.391" y2="287.588" gradientUnits="userSpaceOnUse">
<stop stop-color="#185AE0"/>
<stop offset="1" stop-color="#CCDAF7"/>
</linearGradient>
<linearGradient id="paint2_linear_522_6376" x1="111" y1="134.5" x2="234.391" y2="287.588" gradientUnits="userSpaceOnUse">
<stop stop-color="#185AE0"/>
<stop offset="1" stop-color="#CCDAF7"/>
</linearGradient>
<linearGradient id="paint3_linear_522_6376" x1="111" y1="134.5" x2="234.391" y2="287.588" gradientUnits="userSpaceOnUse">
<stop stop-color="#185AE0"/>
<stop offset="1" stop-color="#CCDAF7"/>
</linearGradient>
<linearGradient id="paint4_linear_522_6376" x1="111" y1="134.5" x2="234.391" y2="287.588" gradientUnits="userSpaceOnUse">
<stop stop-color="#185AE0"/>
<stop offset="1" stop-color="#CCDAF7"/>
</linearGradient>
<linearGradient id="paint5_linear_522_6376" x1="111" y1="134.5" x2="234.391" y2="287.588" gradientUnits="userSpaceOnUse">
<stop stop-color="#185AE0"/>
<stop offset="1" stop-color="#CCDAF7"/>
</linearGradient>
<linearGradient id="paint6_linear_522_6376" x1="111" y1="134.5" x2="234.391" y2="287.588" gradientUnits="userSpaceOnUse">
<stop stop-color="#185AE0"/>
<stop offset="1" stop-color="#CCDAF7"/>
</linearGradient>
<linearGradient id="paint7_linear_522_6376" x1="111" y1="134.5" x2="234.391" y2="287.588" gradientUnits="userSpaceOnUse">
<stop stop-color="#185AE0"/>
<stop offset="1" stop-color="#CCDAF7"/>
</linearGradient>
</defs>
</svg>
