<svg width="4" height="14" viewBox="0 0 4 14" fill="none" xmlns="http://www.w3.org/2000/svg">
<path d="M3.75 7C3.75 7.34612 3.64737 7.68446 3.45507 7.97225C3.26278 8.26004 2.98947 8.48434 2.6697 8.61679C2.34993 8.74924 1.99806 8.7839 1.65859 8.71638C1.31913 8.64885 1.00731 8.48218 0.762564 8.23744C0.517822 7.9927 0.351151 7.68088 0.283627 7.34141C0.216102 7.00194 0.250758 6.65008 0.383212 6.33031C0.515665 6.01054 0.739967 5.73722 1.02775 5.54493C1.31554 5.35264 1.65388 5.25 2 5.25C2.46413 5.25 2.90925 5.43438 3.23744 5.76256C3.56563 6.09075 3.75 6.53587 3.75 7ZM2 3.75C2.34612 3.75 2.68446 3.64737 2.97225 3.45507C3.26004 3.26278 3.48434 2.98947 3.61679 2.6697C3.74924 2.34993 3.7839 1.99806 3.71638 1.65859C3.64885 1.31913 3.48218 1.00731 3.23744 0.762564C2.9927 0.517822 2.68088 0.351151 2.34141 0.283627C2.00194 0.216102 1.65008 0.250758 1.33031 0.383212C1.01053 0.515665 0.737222 0.739967 0.544929 1.02775C0.352637 1.31554 0.250001 1.65388 0.250001 2C0.250001 2.46413 0.434376 2.90925 0.762564 3.23744C1.09075 3.56563 1.53587 3.75 2 3.75ZM2 10.25C1.65388 10.25 1.31554 10.3526 1.02775 10.5449C0.739967 10.7372 0.515665 11.0105 0.383212 11.3303C0.250758 11.6501 0.216102 12.0019 0.283627 12.3414C0.351151 12.6809 0.517822 12.9927 0.762564 13.2374C1.00731 13.4822 1.31913 13.6489 1.65859 13.7164C1.99806 13.7839 2.34993 13.7492 2.6697 13.6168C2.98947 13.4843 3.26278 13.26 3.45507 12.9723C3.64737 12.6845 3.75 12.3461 3.75 12C3.75 11.5359 3.56563 11.0908 3.23744 10.7626C2.90925 10.4344 2.46413 10.25 2 10.25Z" fill="black"/>
</svg>
