<svg width="21" height="20" viewBox="0 0 21 20" fill="none" xmlns="http://www.w3.org/2000/svg">
<path d="M20.0224 19.6001C19.9549 19.7217 19.8577 19.8227 19.7408 19.8929C19.6238 19.9631 19.4911 20 19.356 20H0.893484C0.758516 19.9999 0.625959 19.9628 0.509124 19.8925C0.39229 19.8223 0.29529 19.7213 0.227866 19.5997C0.160441 19.4781 0.124965 19.3402 0.125 19.1999C0.125035 19.0596 0.160579 18.9217 0.228063 18.8002C1.69257 16.1675 3.94942 14.2798 6.58322 13.3849C5.28042 12.5785 4.26823 11.3497 3.70209 9.88717C3.13594 8.42469 3.04715 6.8094 3.44934 5.28936C3.85153 3.76932 4.72246 2.42858 5.9284 1.47304C7.13434 0.517506 8.60859 0 10.1248 0C11.6409 0 13.1152 0.517506 14.3211 1.47304C15.5271 2.42858 16.398 3.76932 16.8002 5.28936C17.2024 6.8094 17.1136 8.42469 16.5474 9.88717C15.9813 11.3497 14.9691 12.5785 13.6663 13.3849C16.3001 14.2798 18.557 16.1675 20.0215 18.8002C20.0891 18.9217 20.1248 19.0596 20.125 19.2C20.1252 19.3404 20.0898 19.4784 20.0224 19.6001Z" fill="#3977F4"/>
</svg>
