<svg width="14" height="14" viewBox="0 0 14 14" fill="none" xmlns="http://www.w3.org/2000/svg">
<path d="M13.3844 3.40873L10.5913 0.616227C10.3568 0.381888 10.039 0.250244 9.70751 0.250244C9.37605 0.250244 9.05816 0.381888 8.82375 0.616227L1.11625 8.3231C0.999784 8.43886 0.90744 8.57658 0.844571 8.72828C0.781703 8.87998 0.74956 9.04264 0.750005 9.20685V12C0.750005 12.3315 0.881701 12.6494 1.11612 12.8839C1.35054 13.1183 1.66848 13.25 2 13.25H12.5C12.6989 13.25 12.8897 13.171 13.0303 13.0303C13.171 12.8897 13.25 12.6989 13.25 12.5C13.25 12.3011 13.171 12.1103 13.0303 11.9696C12.8897 11.829 12.6989 11.75 12.5 11.75H6.8125L13.3844 5.17685C13.5005 5.06077 13.5926 4.92295 13.6555 4.77126C13.7183 4.61957 13.7507 4.45698 13.7507 4.29279C13.7507 4.12859 13.7183 3.96601 13.6555 3.81432C13.5926 3.66263 13.5005 3.52481 13.3844 3.40873ZM4.6875 11.75H2.25V9.31248L7.5 4.06248L9.9375 6.49998L4.6875 11.75ZM11 5.43748L8.5625 2.99998L9.70875 1.85373L12.1463 4.29123L11 5.43748Z" fill="#487CEC"/>
</svg>
