<svg width="12" height="8" viewBox="0 0 12 8" fill="none" xmlns="http://www.w3.org/2000/svg">
<path d="M7.70945 7.1702C7.74635 7.22678 7.76728 7.29227 7.77003 7.35977C7.77278 7.42726 7.75725 7.49425 7.72508 7.55364C7.69291 7.61304 7.64529 7.66264 7.58726 7.69721C7.52923 7.73178 7.46293 7.75003 7.39538 7.75004H0.479446C0.411898 7.75003 0.345605 7.73178 0.287573 7.69721C0.229541 7.66264 0.181924 7.61304 0.149753 7.55364C0.117582 7.49425 0.102052 7.42726 0.104803 7.35977C0.107555 7.29227 0.128485 7.22678 0.165384 7.1702C0.693246 6.35768 1.46968 5.73762 2.37882 5.40254C1.87623 5.06794 1.49465 4.58049 1.29052 4.01225C1.0864 3.44402 1.07055 2.82518 1.24533 2.24725C1.42012 1.66931 1.77624 1.16297 2.26106 0.803087C2.74587 0.443208 3.33363 0.248901 3.93742 0.248901C4.5412 0.248901 5.12896 0.443208 5.61377 0.803087C6.09859 1.16297 6.45472 1.66931 6.6295 2.24725C6.80428 2.82518 6.78844 3.44402 6.58431 4.01225C6.38018 4.58049 5.9986 5.06794 5.49601 5.40254C6.40515 5.73762 7.18159 6.35768 7.70945 7.1702ZM11.8302 7.16317C11.3022 6.35407 10.5275 5.73668 9.62101 5.40254C10.2143 5.00287 10.6331 4.39211 10.792 3.69458C10.9509 2.99705 10.838 2.26519 10.4763 1.64796C10.1146 1.03073 9.5313 0.574529 8.84511 0.372213C8.15892 0.169896 7.42142 0.236672 6.78273 0.558949C6.75831 0.571559 6.73695 0.589384 6.72019 0.611162C6.70342 0.632941 6.69164 0.65814 6.68569 0.684974C6.67975 0.711809 6.67977 0.739623 6.68576 0.766447C6.69176 0.793271 6.70358 0.81845 6.72038 0.840199C7.19531 1.43261 7.46805 2.16153 7.49867 2.92019C7.52929 3.67885 7.31618 4.42738 6.89054 5.05614C6.86303 5.09723 6.85286 5.14752 6.86226 5.19607C6.87165 5.24462 6.89984 5.28749 6.9407 5.31535C7.49565 5.70267 7.97072 6.19334 8.33992 6.76051C8.48881 6.98854 8.54963 7.26296 8.51101 7.53254C8.50666 7.55936 8.5082 7.5868 8.5155 7.61297C8.52281 7.63913 8.53571 7.6634 8.55332 7.68408C8.57093 7.70477 8.59283 7.72138 8.61749 7.73277C8.64216 7.74416 8.669 7.75005 8.69617 7.75004H11.5227C11.6053 7.75007 11.6856 7.72284 11.7511 7.67258C11.8166 7.62232 11.8637 7.55184 11.8851 7.47207C11.8981 7.41962 11.9 7.36501 11.8905 7.31179C11.8811 7.25857 11.8605 7.20793 11.8302 7.16317Z" fill="#999999"/>
</svg>
