<svg width="20" height="20" viewBox="0 0 20 20" fill="none" xmlns="http://www.w3.org/2000/svg">
<path fill-rule="evenodd" clip-rule="evenodd" d="M12.0518 2.10474C12.0518 1.00017 11.1564 0.104736 10.0518 0.104736C8.94726 0.104736 8.05183 1.00017 8.05183 2.10474V8.05237H2.10449C0.999923 8.05237 0.104492 8.9478 0.104492 10.0524C0.104492 11.1569 0.999923 12.0524 2.10449 12.0524H8.05183V18C8.05183 19.1046 8.94726 20 10.0518 20C11.1564 20 12.0518 19.1046 12.0518 18V12.0524H17.9998C19.1044 12.0524 19.9998 11.1569 19.9998 10.0524C19.9998 8.9478 19.1044 8.05237 17.9998 8.05237H12.0518V2.10474Z" fill="white"/>
</svg>
