<svg width="21" height="22" viewBox="0 0 21 22" fill="none" xmlns="http://www.w3.org/2000/svg">
<path d="M20.4208 19.2041L15.9686 14.75C17.3035 13.0104 17.9268 10.8282 17.7119 8.64606C17.497 6.46389 16.4602 4.44515 14.8116 2.99936C13.1631 1.55356 11.0263 0.78898 8.83472 0.860705C6.64317 0.932429 4.56095 1.83509 3.01046 3.38558C1.45997 4.93607 0.557307 7.01829 0.485583 9.20984C0.413858 11.4014 1.17844 13.5382 2.62424 15.1867C4.07003 16.8353 6.08877 17.8722 8.27094 18.087C10.4531 18.3019 12.6353 17.6786 14.3749 16.3437L18.8308 20.8006C18.9355 20.9053 19.0597 20.9883 19.1964 21.0449C19.3331 21.1015 19.4797 21.1307 19.6277 21.1307C19.7757 21.1307 19.9222 21.1015 20.059 21.0449C20.1957 20.9883 20.3199 20.9053 20.4246 20.8006C20.5292 20.696 20.6122 20.5717 20.6689 20.435C20.7255 20.2983 20.7546 20.1517 20.7546 20.0037C20.7546 19.8557 20.7255 19.7092 20.6689 19.5725C20.6122 19.4357 20.5292 19.3115 20.4246 19.2069L20.4208 19.2041ZM2.74987 9.49999C2.74987 8.23914 3.12376 7.0066 3.82425 5.95823C4.52475 4.90987 5.52039 4.09277 6.68527 3.61026C7.85014 3.12775 9.13194 3.00151 10.3686 3.24749C11.6052 3.49347 12.7411 4.10063 13.6327 4.99219C14.5242 5.88375 15.1314 7.01966 15.3774 8.25629C15.6234 9.49292 15.4971 10.7747 15.0146 11.9396C14.5321 13.1045 13.715 14.1001 12.6666 14.8006C11.6183 15.5011 10.3857 15.875 9.12487 15.875C7.43465 15.8733 5.81415 15.201 4.61899 14.0059C3.42382 12.8107 2.75161 11.1902 2.74987 9.49999Z" fill="#3977F4"/>
</svg>
