<svg width="21" height="22" viewBox="0 0 21 22" fill="none" xmlns="http://www.w3.org/2000/svg">
<path d="M20.4213 19.2041L15.9691 14.75C17.304 13.0104 17.9273 10.8282 17.7124 8.64606C17.4975 6.46389 16.4606 4.44515 14.8121 2.99936C13.1635 1.55356 11.0268 0.78898 8.83521 0.860705C6.64366 0.932429 4.56144 1.83509 3.01095 3.38558C1.46046 4.93607 0.557796 7.01829 0.486071 9.20984C0.414347 11.4014 1.17893 13.5382 2.62472 15.1867C4.07052 16.8353 6.08926 17.8722 8.27143 18.087C10.4536 18.3019 12.6358 17.6786 14.3754 16.3437L18.8313 20.8006C18.9359 20.9053 19.0602 20.9883 19.1969 21.0449C19.3336 21.1015 19.4802 21.1307 19.6282 21.1307C19.7762 21.1307 19.9227 21.1015 20.0594 21.0449C20.1962 20.9883 20.3204 20.9053 20.425 20.8006C20.5297 20.696 20.6127 20.5717 20.6693 20.435C20.726 20.2983 20.7551 20.1517 20.7551 20.0037C20.7551 19.8557 20.726 19.7092 20.6693 19.5725C20.6127 19.4357 20.5297 19.3115 20.425 19.2069L20.4213 19.2041ZM2.75036 9.49999C2.75036 8.23914 3.12425 7.0066 3.82474 5.95823C4.52524 4.90987 5.52087 4.09277 6.68575 3.61026C7.85063 3.12775 9.13243 3.00151 10.3691 3.24749C11.6057 3.49347 12.7416 4.10063 13.6332 4.99219C14.5247 5.88375 15.1319 7.01966 15.3779 8.25629C15.6238 9.49292 15.4976 10.7747 15.0151 11.9396C14.5326 13.1045 13.7155 14.1001 12.6671 14.8006C11.6188 15.5011 10.3862 15.875 9.12536 15.875C7.43514 15.8733 5.81464 15.201 4.61947 14.0059C3.42431 12.8107 2.7521 11.1902 2.75036 9.49999Z" fill="#AAAAAA"/>
</svg>
