<svg width="33" height="32" viewBox="0 0 33 32" fill="none" xmlns="http://www.w3.org/2000/svg">
<rect x="1.25" y="0.75" width="30.5" height="30.5" rx="15.25" stroke="black" stroke-width="1.5"/>
<g clip-path="url(#clip0_170_2601)">
<path d="M22.884 9.61625C22.7269 9.45911 22.5308 9.34669 22.3158 9.29055C22.1008 9.23441 21.8748 9.2366 21.6609 9.29688L21.6471 9.30125L9.65277 12.9375C9.40951 13.0081 9.19343 13.1508 9.03314 13.347C8.87284 13.5431 8.77591 13.7832 8.75517 14.0357C8.73444 14.2881 8.79088 14.5409 8.91701 14.7605C9.04315 14.9802 9.23304 15.1563 9.46152 15.2656L14.6878 17.8125L17.2321 23.0406C17.3325 23.254 17.4917 23.4343 17.6909 23.5603C17.8902 23.6863 18.1214 23.7527 18.3571 23.7519C18.3928 23.7519 18.429 23.7519 18.4653 23.7475C18.7184 23.728 18.9594 23.6312 19.1557 23.4703C19.352 23.3093 19.4941 23.0919 19.5628 22.8475L23.199 10.8531C23.2009 10.8487 23.2023 10.8441 23.2034 10.8394C23.2637 10.6255 23.2659 10.3995 23.2097 10.1845C23.1536 9.96948 23.0412 9.77334 22.884 9.61625ZM18.3071 21.8169L16.159 17.4019L19.034 14.53C19.1038 14.4602 19.1591 14.3774 19.1969 14.2863C19.2346 14.1951 19.2541 14.0974 19.2541 13.9988C19.2541 13.9001 19.2346 13.8024 19.1969 13.7112C19.1591 13.6201 19.1038 13.5373 19.034 13.4675C18.9643 13.3977 18.8814 13.3424 18.7903 13.3046C18.6991 13.2669 18.6014 13.2474 18.5028 13.2474C18.4041 13.2474 18.3064 13.2669 18.2153 13.3046C18.1241 13.3424 18.0413 13.3977 17.9715 13.4675L15.0965 16.3425L10.6834 14.1931L21.6253 10.875L18.3071 21.8169Z" fill="black"/>
</g>
<defs>
<clipPath id="clip0_170_2601">
<rect width="16" height="16" fill="white" transform="translate(8.5 8)"/>
</clipPath>
</defs>
</svg>
