<svg width="22" height="21" viewBox="0 0 22 21" fill="none" xmlns="http://www.w3.org/2000/svg">
<path d="M11 5.62499C10.0358 5.62499 9.09329 5.91091 8.2916 6.44658C7.48991 6.98225 6.86507 7.74362 6.49609 8.63441C6.12712 9.5252 6.03058 10.5054 6.21868 11.4511C6.40678 12.3967 6.87108 13.2654 7.55286 13.9471C8.23464 14.6289 9.10328 15.0932 10.0489 15.2813C10.9946 15.4694 11.9748 15.3729 12.8656 15.0039C13.7564 14.6349 14.5177 14.0101 15.0534 13.2084C15.5891 12.4067 15.875 11.4642 15.875 10.5C15.8735 9.20752 15.3594 7.96841 14.4455 7.05449C13.5316 6.14057 12.2925 5.62648 11 5.62499ZM11 13.125C10.4808 13.125 9.97331 12.971 9.54164 12.6826C9.10996 12.3942 8.7735 11.9842 8.57482 11.5045C8.37614 11.0249 8.32416 10.4971 8.42545 9.98788C8.52673 9.47868 8.77674 9.01095 9.14385 8.64384C9.51096 8.27672 9.97869 8.02672 10.4879 7.92543C10.9971 7.82414 11.5249 7.87613 12.0046 8.07481C12.4842 8.27349 12.8942 8.60994 13.1826 9.04162C13.4711 9.4733 13.625 9.98082 13.625 10.5C13.625 11.1962 13.3484 11.8639 12.8562 12.3561C12.3639 12.8484 11.6962 13.125 11 13.125ZM21.6744 8.4778C21.6427 8.31934 21.5772 8.16958 21.4824 8.0387C21.3876 7.90783 21.2657 7.79891 21.125 7.71937L18.5197 6.23343L18.5094 3.29812C18.5088 3.13526 18.4729 2.97446 18.4041 2.82684C18.3353 2.67922 18.2353 2.5483 18.1109 2.44312C17.061 1.55481 15.8522 0.873712 14.5484 0.435929C14.3997 0.385764 14.2422 0.367272 14.0859 0.381642C13.9296 0.396011 13.778 0.442925 13.6409 0.519367L11 1.99405L8.35907 0.518429C8.22182 0.441567 8.06997 0.394345 7.91333 0.379812C7.75669 0.365278 7.59875 0.383757 7.44969 0.434054C6.14559 0.873657 4.93672 1.55667 3.88719 2.44687C3.76326 2.55193 3.66356 2.68259 3.59494 2.82986C3.52632 2.97713 3.49042 3.13752 3.48969 3.29999L3.47657 6.23812L0.875007 7.7203C0.734298 7.80015 0.612465 7.9094 0.517819 8.04061C0.423172 8.17182 0.357939 8.3219 0.326569 8.48062C0.0617165 9.81479 0.0617165 11.188 0.326569 12.5222C0.358188 12.6806 0.423536 12.8303 0.518171 12.9611C0.612806 13.092 0.734509 13.201 0.875007 13.2806L3.48313 14.7666L3.49344 17.7019C3.49401 17.8647 3.52993 18.0255 3.59872 18.1731C3.66752 18.3208 3.76754 18.4517 3.89188 18.5569C4.94178 19.4452 6.15065 20.1263 7.45438 20.5641C7.6031 20.6142 7.76067 20.6327 7.91696 20.6183C8.07325 20.604 8.2248 20.5571 8.36188 20.4806L11 19.0059L13.6381 20.4816C13.7754 20.5584 13.9272 20.6056 14.0839 20.6202C14.2405 20.6347 14.3985 20.6162 14.5475 20.5659C15.8516 20.1263 17.0605 19.4433 18.11 18.5531C18.2339 18.4481 18.3336 18.3174 18.4023 18.1701C18.4709 18.0229 18.5068 17.8625 18.5075 17.7L18.5206 14.7619L21.1278 13.2797C21.2685 13.1998 21.3904 13.0906 21.485 12.9594C21.5797 12.8282 21.6449 12.6781 21.6763 12.5194C21.9405 11.1851 21.9399 9.81185 21.6744 8.4778ZM19.5528 11.5884L17.0328 13.0209C16.8538 13.1224 16.7062 13.2713 16.6063 13.4512C16.5556 13.545 16.5022 13.6322 16.4469 13.7212C16.3358 13.8986 16.2764 14.1035 16.2753 14.3128L16.2622 17.1562C15.6557 17.6126 14.9915 17.9868 14.2869 18.2691L11.7416 16.845C11.5737 16.751 11.3846 16.7016 11.1922 16.7016H11.165C11.0581 16.7016 10.9494 16.7016 10.8425 16.7016C10.6415 16.6968 10.4428 16.7457 10.2669 16.8431L7.71876 18.2644C7.01297 17.9835 6.34724 17.6109 5.73876 17.1562L5.72844 14.3212C5.72758 14.1116 5.66815 13.9064 5.55688 13.7287C5.50251 13.6406 5.44813 13.5497 5.39751 13.4587C5.2975 13.2799 5.15026 13.132 4.97188 13.0312L2.45001 11.5903C2.35204 10.8674 2.35204 10.1345 2.45001 9.41155L4.97001 7.97905C5.14875 7.87758 5.29627 7.72908 5.39657 7.54968C5.44719 7.45593 5.50063 7.3678 5.55594 7.27874C5.66705 7.10135 5.72646 6.89649 5.72751 6.68718L5.73782 3.84374C6.34453 3.38866 7.00872 3.01574 7.71313 2.73468L10.2584 4.15874C10.4343 4.25738 10.6335 4.30662 10.835 4.30124C10.9419 4.30124 11.0506 4.30124 11.1575 4.30124C11.3585 4.306 11.5572 4.25714 11.7331 4.15968L14.2813 2.73562C14.987 3.01645 15.6528 3.38903 16.2613 3.84374L16.2716 6.67874C16.2724 6.88837 16.3319 7.09358 16.4431 7.27124C16.4975 7.35937 16.5519 7.4503 16.6025 7.54124C16.7025 7.72007 16.8498 7.86795 17.0281 7.96874L19.55 9.40593C19.6493 10.13 19.6502 10.8641 19.5528 11.5884Z" fill="black"/>
</svg>
