<svg width="33" height="32" viewBox="0 0 33 32" fill="none" xmlns="http://www.w3.org/2000/svg">
<rect x="1.25" y="0.75" width="30.5" height="30.5" rx="15.25" stroke="black" stroke-width="1.5"/>
<path d="M23.6871 14C23.6096 13.7608 23.4629 13.55 23.2655 13.3943C23.0681 13.2385 22.829 13.1448 22.5783 13.125L19.0415 12.8394L17.6765 9.53878C17.5805 9.3055 17.4174 9.106 17.2079 8.9656C16.9984 8.8252 16.7518 8.75024 16.4996 8.75024C16.2474 8.75024 16.0008 8.8252 15.7913 8.9656C15.5817 9.106 15.4186 9.3055 15.3227 9.53878L13.959 12.84L10.4221 13.125C10.171 13.1457 9.9316 13.2402 9.73401 13.3966C9.53643 13.5529 9.38947 13.7642 9.3116 14.0038C9.23373 14.2434 9.22842 14.5007 9.29634 14.7434C9.36426 14.986 9.50238 15.2032 9.69335 15.3675L12.3921 17.695L11.5671 21.1763C11.5069 21.4217 11.5212 21.6795 11.608 21.9168C11.6948 22.1542 11.8503 22.3603 12.0547 22.509C12.259 22.6576 12.503 22.7421 12.7555 22.7516C13.0081 22.7612 13.2577 22.6953 13.4727 22.5625L16.4996 20.6994L19.5265 22.5625C19.7414 22.6945 19.9907 22.7596 20.2427 22.7498C20.4947 22.74 20.7381 22.6557 20.9421 22.5075C21.1462 22.3592 21.3016 22.1538 21.3889 21.9172C21.4761 21.6805 21.4911 21.4233 21.4321 21.1782L20.6071 17.6969L23.3058 15.3694C23.4979 15.2046 23.6368 14.9865 23.7046 14.7427C23.7725 14.4989 23.7664 14.2404 23.6871 14ZM19.2827 16.8563C19.1787 16.946 19.1012 17.0626 19.0589 17.1933C19.0166 17.324 19.011 17.4638 19.0427 17.5975L19.8483 21L16.8927 19.1825C16.7745 19.1098 16.6384 19.0712 16.4996 19.0712C16.3608 19.0712 16.2247 19.1098 16.1065 19.1825L13.1508 21L13.9565 17.6C13.9882 17.4663 13.9826 17.3265 13.9403 17.1958C13.898 17.0651 13.8205 16.9485 13.7165 16.8588L11.0746 14.5775L14.5371 14.2982C14.6749 14.2871 14.8069 14.2382 14.9187 14.1568C15.0304 14.0754 15.1174 13.9647 15.1702 13.8369L16.4996 10.6182L17.829 13.8369C17.8817 13.9647 17.9688 14.0754 18.0805 14.1568C18.1923 14.2382 18.3243 14.2871 18.4621 14.2982L21.9246 14.5775L19.2827 16.8563Z" fill="black"/>
</svg>
