<svg width="22" height="21" viewBox="0 0 22 21" fill="none" xmlns="http://www.w3.org/2000/svg">
<path d="M10.998 1.00107C11.2028 1.00116 11.4031 1.06186 11.5732 1.17587C11.7011 1.26159 11.8076 1.37479 11.8857 1.50595L11.9541 1.64267V1.64365L14.0869 6.80673L14.2041 7.08994L14.5088 7.11435L20.0381 7.55966V7.56064C20.2427 7.57794 20.4378 7.6557 20.5986 7.78329C20.7594 7.91088 20.879 8.08317 20.9424 8.27841C21.0057 8.47361 21.0103 8.68329 20.9551 8.88095C20.8998 9.07859 20.7872 9.25562 20.6318 9.38974L19.2832 10.5548L19.2871 10.5538L16.4189 13.0294L16.1895 13.2267L16.2588 13.5226L17.5449 18.9669V18.9679C17.5928 19.1673 17.5807 19.377 17.5098 19.5694C17.4388 19.7617 17.3122 19.9283 17.1465 20.0489C17.022 20.1394 16.8795 20.2011 16.7295 20.2296L16.5781 20.2472C16.3733 20.2554 16.1701 20.2027 15.9951 20.0958H15.9941L11.2617 17.1827L11 17.0216L10.7383 17.1827L6.00293 20.0948C5.82798 20.2011 5.62545 20.2537 5.4209 20.2452C5.26764 20.2388 5.11823 20.1985 4.9834 20.128L4.85352 20.047C4.68801 19.9264 4.56211 19.7595 4.49121 19.5675C4.43803 19.4234 4.41744 19.27 4.43066 19.1183L4.45508 18.9679V18.9669L5.74512 13.5226L5.81543 13.2276L5.58496 13.0294L1.36621 9.38876H1.36719C1.25091 9.28826 1.15879 9.16373 1.09668 9.02451L1.04492 8.88095C0.989721 8.68365 0.993711 8.47436 1.05664 8.27939C1.11961 8.08446 1.23831 7.91202 1.39844 7.78427C1.55871 7.6565 1.75383 7.57861 1.95801 7.56064L1.95703 7.55966L7.48535 7.11435L7.79004 7.08994L7.90723 6.80673L10.041 1.64365V1.64267C10.1189 1.45299 10.2516 1.29006 10.4219 1.17587C10.5921 1.06176 10.7931 1.00107 10.998 1.00107Z" fill="#DBDBDB" stroke="#999999"/>
</svg>
