<svg width="33" height="32" viewBox="0 0 33 32" fill="none" xmlns="http://www.w3.org/2000/svg">
<rect x="1.25" y="0.75" width="30.5" height="30.5" rx="15.25" stroke="#FFB300" stroke-width="1.5"/>
<path d="M23.1431 15.1781L20.3306 17.605L21.1875 21.2344C21.2347 21.4314 21.2226 21.638 21.1525 21.8281C21.0824 22.0182 20.9575 22.1833 20.7937 22.3025C20.6298 22.4217 20.4343 22.4896 20.2319 22.4977C20.0294 22.5059 19.8291 22.4538 19.6562 22.3481L16.5 20.4056L13.3418 22.3481C13.169 22.4532 12.9689 22.5047 12.7668 22.4963C12.5647 22.4879 12.3696 22.4199 12.2061 22.3008C12.0426 22.1817 11.9179 22.0169 11.8479 21.8271C11.7779 21.6374 11.7655 21.4311 11.8125 21.2344L12.6725 17.605L9.85996 15.1781C9.70702 15.0459 9.59641 14.8716 9.54195 14.677C9.48749 14.4823 9.49158 14.2759 9.55372 14.0835C9.61586 13.8912 9.73329 13.7214 9.89135 13.5954C10.0494 13.4694 10.2411 13.3927 10.4425 13.375L14.13 13.0775L15.5525 9.63501C15.6295 9.44739 15.7605 9.28691 15.9289 9.17397C16.0974 9.06102 16.2956 9.00072 16.4984 9.00072C16.7012 9.00072 16.8994 9.06102 17.0679 9.17397C17.2363 9.28691 17.3673 9.44739 17.4443 9.63501L18.8662 13.0775L22.5537 13.375C22.7555 13.3921 22.9477 13.4683 23.1064 13.5941C23.265 13.72 23.383 13.8898 23.4455 14.0824C23.508 14.275 23.5123 14.4818 23.4579 14.6768C23.4034 14.8718 23.2926 15.0464 23.1393 15.1788L23.1431 15.1781Z" fill="#FFB300"/>
</svg>
