<svg width="23" height="20" viewBox="0 0 23 20" fill="none" xmlns="http://www.w3.org/2000/svg">
<path d="M21.875 17.125H20.75V7.30938C20.9993 7.22028 21.2092 7.04612 21.3428 6.81753C21.4763 6.58894 21.525 6.32057 21.4802 6.05965C21.4354 5.79872 21.3 5.56195 21.0979 5.39099C20.8957 5.22003 20.6397 5.12585 20.375 5.125H16.625V2.80937C16.8743 2.72028 17.0842 2.54612 17.2178 2.31753C17.3513 2.08894 17.4 1.82057 17.3552 1.55965C17.3104 1.29872 17.175 1.06195 16.9729 0.89099C16.7707 0.720034 16.5147 0.625847 16.25 0.625H2.75C2.48526 0.625847 2.22929 0.720034 2.02714 0.89099C1.825 1.06195 1.68961 1.29872 1.64482 1.55965C1.60003 1.82057 1.64869 2.08894 1.78224 2.31753C1.9158 2.54612 2.1257 2.72028 2.375 2.80937V17.125H1.25C0.951631 17.125 0.665483 17.2435 0.454505 17.4545C0.243526 17.6655 0.125 17.9516 0.125 18.25C0.125 18.5484 0.243526 18.8345 0.454505 19.0455C0.665483 19.2565 0.951631 19.375 1.25 19.375H21.875C22.1734 19.375 22.4595 19.2565 22.6705 19.0455C22.8815 18.8345 23 18.5484 23 18.25C23 17.9516 22.8815 17.6655 22.6705 17.4545C22.4595 17.2435 22.1734 17.125 21.875 17.125ZM18.5 7.375V17.125H16.625V7.375H18.5ZM4.625 2.875H14.375V17.125H12.875V13C12.875 12.7016 12.7565 12.4155 12.5455 12.2045C12.3345 11.9935 12.0484 11.875 11.75 11.875H7.25C6.95163 11.875 6.66548 11.9935 6.4545 12.2045C6.24353 12.4155 6.125 12.7016 6.125 13V17.125H4.625V2.875ZM10.625 17.125H8.375V14.125H10.625V17.125ZM5.75 5.5C5.75 5.20163 5.86853 4.91548 6.0795 4.7045C6.29048 4.49353 6.57663 4.375 6.875 4.375H7.625C7.92337 4.375 8.20952 4.49353 8.4205 4.7045C8.63147 4.91548 8.75 5.20163 8.75 5.5C8.75 5.79837 8.63147 6.08452 8.4205 6.2955C8.20952 6.50647 7.92337 6.625 7.625 6.625H6.875C6.57663 6.625 6.29048 6.50647 6.0795 6.2955C5.86853 6.08452 5.75 5.79837 5.75 5.5ZM10.25 5.5C10.25 5.20163 10.3685 4.91548 10.5795 4.7045C10.7905 4.49353 11.0766 4.375 11.375 4.375H12.125C12.4234 4.375 12.7095 4.49353 12.9205 4.7045C13.1315 4.91548 13.25 5.20163 13.25 5.5C13.25 5.79837 13.1315 6.08452 12.9205 6.2955C12.7095 6.50647 12.4234 6.625 12.125 6.625H11.375C11.0766 6.625 10.7905 6.50647 10.5795 6.2955C10.3685 6.08452 10.25 5.79837 10.25 5.5ZM5.75 9.25C5.75 8.95163 5.86853 8.66548 6.0795 8.4545C6.29048 8.24353 6.57663 8.125 6.875 8.125H7.625C7.92337 8.125 8.20952 8.24353 8.4205 8.4545C8.63147 8.66548 8.75 8.95163 8.75 9.25C8.75 9.54837 8.63147 9.83452 8.4205 10.0455C8.20952 10.2565 7.92337 10.375 7.625 10.375H6.875C6.57663 10.375 6.29048 10.2565 6.0795 10.0455C5.86853 9.83452 5.75 9.54837 5.75 9.25ZM10.25 9.25C10.25 8.95163 10.3685 8.66548 10.5795 8.4545C10.7905 8.24353 11.0766 8.125 11.375 8.125H12.125C12.4234 8.125 12.7095 8.24353 12.9205 8.4545C13.1315 8.66548 13.25 8.95163 13.25 9.25C13.25 9.54837 13.1315 9.83452 12.9205 10.0455C12.7095 10.2565 12.4234 10.375 12.125 10.375H11.375C11.0766 10.375 10.7905 10.2565 10.5795 10.0455C10.3685 9.83452 10.25 9.54837 10.25 9.25Z" fill="black"/>
</svg>
