<svg width="20" height="21" viewBox="0 0 20 21" fill="none" xmlns="http://www.w3.org/2000/svg">
<path d="M17.5 1.625H15.625V1.25C15.625 0.951631 15.5065 0.665483 15.2955 0.454505C15.0845 0.243526 14.7984 0.125 14.5 0.125C14.2016 0.125 13.9155 0.243526 13.7045 0.454505C13.4935 0.665483 13.375 0.951631 13.375 1.25V1.625H6.625V1.25C6.625 0.951631 6.50647 0.665483 6.2955 0.454505C6.08452 0.243526 5.79837 0.125 5.5 0.125C5.20163 0.125 4.91548 0.243526 4.7045 0.454505C4.49353 0.665483 4.375 0.951631 4.375 1.25V1.625H2.5C2.00272 1.625 1.52581 1.82254 1.17417 2.17417C0.822544 2.52581 0.625 3.00272 0.625 3.5V18.5C0.625 18.9973 0.822544 19.4742 1.17417 19.8258C1.52581 20.1775 2.00272 20.375 2.5 20.375H17.5C17.9973 20.375 18.4742 20.1775 18.8258 19.8258C19.1775 19.4742 19.375 18.9973 19.375 18.5V3.5C19.375 3.00272 19.1775 2.52581 18.8258 2.17417C18.4742 1.82254 17.9973 1.625 17.5 1.625ZM4.375 3.875C4.375 4.17337 4.49353 4.45952 4.7045 4.6705C4.91548 4.88147 5.20163 5 5.5 5C5.79837 5 6.08452 4.88147 6.2955 4.6705C6.50647 4.45952 6.625 4.17337 6.625 3.875H13.375C13.375 4.17337 13.4935 4.45952 13.7045 4.6705C13.9155 4.88147 14.2016 5 14.5 5C14.7984 5 15.0845 4.88147 15.2955 4.6705C15.5065 4.45952 15.625 4.17337 15.625 3.875H17.125V6.125H2.875V3.875H4.375ZM2.875 18.125V8.375H17.125V18.125H2.875ZM11.5 11C11.5 11.2967 11.412 11.5867 11.2472 11.8334C11.0824 12.08 10.8481 12.2723 10.574 12.3858C10.2999 12.4994 9.99834 12.5291 9.70737 12.4712C9.41639 12.4133 9.14912 12.2704 8.93934 12.0607C8.72956 11.8509 8.5867 11.5836 8.52882 11.2926C8.47094 11.0017 8.50065 10.7001 8.61418 10.426C8.72771 10.1519 8.91997 9.91762 9.16665 9.7528C9.41332 9.58797 9.70333 9.5 10 9.5C10.3978 9.5 10.7794 9.65804 11.0607 9.93934C11.342 10.2206 11.5 10.6022 11.5 11ZM16 11C16 11.2967 15.912 11.5867 15.7472 11.8334C15.5824 12.08 15.3481 12.2723 15.074 12.3858C14.7999 12.4994 14.4983 12.5291 14.2074 12.4712C13.9164 12.4133 13.6491 12.2704 13.4393 12.0607C13.2296 11.8509 13.0867 11.5836 13.0288 11.2926C12.9709 11.0017 13.0006 10.7001 13.1142 10.426C13.2277 10.1519 13.42 9.91762 13.6666 9.7528C13.9133 9.58797 14.2033 9.5 14.5 9.5C14.8978 9.5 15.2794 9.65804 15.5607 9.93934C15.842 10.2206 16 10.6022 16 11ZM7 15.5C7 15.7967 6.91203 16.0867 6.7472 16.3334C6.58238 16.58 6.34811 16.7723 6.07403 16.8858C5.79994 16.9994 5.49834 17.0291 5.20736 16.9712C4.91639 16.9133 4.64912 16.7704 4.43934 16.5607C4.22956 16.3509 4.0867 16.0836 4.02882 15.7926C3.97094 15.5017 4.00065 15.2001 4.11418 14.926C4.22771 14.6519 4.41997 14.4176 4.66665 14.2528C4.91332 14.088 5.20333 14 5.5 14C5.89782 14 6.27936 14.158 6.56066 14.4393C6.84196 14.7206 7 15.1022 7 15.5ZM11.5 15.5C11.5 15.7967 11.412 16.0867 11.2472 16.3334C11.0824 16.58 10.8481 16.7723 10.574 16.8858C10.2999 16.9994 9.99834 17.0291 9.70737 16.9712C9.41639 16.9133 9.14912 16.7704 8.93934 16.5607C8.72956 16.3509 8.5867 16.0836 8.52882 15.7926C8.47094 15.5017 8.50065 15.2001 8.61418 14.926C8.72771 14.6519 8.91997 14.4176 9.16665 14.2528C9.41332 14.088 9.70333 14 10 14C10.3978 14 10.7794 14.158 11.0607 14.4393C11.342 14.7206 11.5 15.1022 11.5 15.5ZM16 15.5C16 15.7967 15.912 16.0867 15.7472 16.3334C15.5824 16.58 15.3481 16.7723 15.074 16.8858C14.7999 16.9994 14.4983 17.0291 14.2074 16.9712C13.9164 16.9133 13.6491 16.7704 13.4393 16.5607C13.2296 16.3509 13.0867 16.0836 13.0288 15.7926C12.9709 15.5017 13.0006 15.2001 13.1142 14.926C13.2277 14.6519 13.42 14.4176 13.6666 14.2528C13.9133 14.088 14.2033 14 14.5 14C14.8978 14 15.2794 14.158 15.5607 14.4393C15.842 14.7206 16 15.1022 16 15.5Z" fill="black"/>
</svg>
