<svg width="24" height="16" viewBox="0 0 24 16" fill="none" xmlns="http://www.w3.org/2000/svg">
<path d="M22.5 0.875H1.5C1.20163 0.875 0.915483 0.993526 0.704505 1.2045C0.493526 1.41548 0.375 1.70163 0.375 2V14C0.375 14.2984 0.493526 14.5845 0.704505 14.7955C0.915483 15.0065 1.20163 15.125 1.5 15.125H22.5C22.7984 15.125 23.0845 15.0065 23.2955 14.7955C23.5065 14.5845 23.625 14.2984 23.625 14V2C23.625 1.70163 23.5065 1.41548 23.2955 1.2045C23.0845 0.993526 22.7984 0.875 22.5 0.875ZM16.9884 12.875H7.01156C6.78896 11.7952 6.25487 10.8043 5.47529 10.0247C4.6957 9.24513 3.70479 8.71104 2.625 8.48844V7.51156C3.70479 7.28896 4.6957 6.75487 5.47529 5.97529C6.25487 5.1957 6.78896 4.20479 7.01156 3.125H16.9884C17.211 4.20479 17.7451 5.1957 18.5247 5.97529C19.3043 6.75487 20.2952 7.28896 21.375 7.51156V8.48844C20.2952 8.71104 19.3043 9.24513 18.5247 10.0247C17.7451 10.8043 17.211 11.7952 16.9884 12.875ZM21.375 5.18188C20.9012 5.01274 20.4709 4.74048 20.1152 4.38477C19.7595 4.02906 19.4873 3.59877 19.3181 3.125H21.375V5.18188ZM4.68187 3.125C4.51274 3.59877 4.24048 4.02906 3.88477 4.38477C3.52906 4.74048 3.09877 5.01274 2.625 5.18188V3.125H4.68187ZM2.625 10.8181C3.09877 10.9873 3.52906 11.2595 3.88477 11.6152C4.24048 11.9709 4.51274 12.4012 4.68187 12.875H2.625V10.8181ZM19.3181 12.875C19.4873 12.4012 19.7595 11.9709 20.1152 11.6152C20.4709 11.2595 20.9012 10.9873 21.375 10.8181V12.875H19.3181ZM12 4.25C11.2583 4.25 10.5333 4.46993 9.91661 4.88199C9.29993 5.29404 8.81928 5.87971 8.53545 6.56494C8.25162 7.25016 8.17736 8.00416 8.32205 8.73159C8.46675 9.45902 8.8239 10.1272 9.34835 10.6517C9.8728 11.1761 10.541 11.5333 11.2684 11.6779C11.9958 11.8226 12.7498 11.7484 13.4351 11.4645C14.1203 11.1807 14.706 10.7001 15.118 10.0834C15.5301 9.4667 15.75 8.74168 15.75 8C15.75 7.00544 15.3549 6.05161 14.6517 5.34835C13.9484 4.64509 12.9946 4.25 12 4.25ZM12 9.5C11.7033 9.5 11.4133 9.41203 11.1666 9.2472C10.92 9.08238 10.7277 8.84811 10.6142 8.57403C10.5006 8.29994 10.4709 7.99834 10.5288 7.70736C10.5867 7.41639 10.7296 7.14912 10.9393 6.93934C11.1491 6.72956 11.4164 6.5867 11.7074 6.52882C11.9983 6.47094 12.2999 6.50065 12.574 6.61418C12.8481 6.72771 13.0824 6.91997 13.2472 7.16665C13.412 7.41332 13.5 7.70333 13.5 8C13.5 8.39782 13.342 8.77936 13.0607 9.06066C12.7794 9.34196 12.3978 9.5 12 9.5Z" fill="black"/>
</svg>
