<svg width="18" height="22" viewBox="0 0 18 22" fill="none" xmlns="http://www.w3.org/2000/svg">
<path d="M15.75 19.625H12.0684C12.5541 19.1562 13.0763 18.6209 13.5994 18.0191C16.2328 14.9909 17.625 11.7847 17.625 8.75C17.625 6.46251 16.7163 4.26871 15.0988 2.6512C13.4813 1.0337 11.2875 0.125 9 0.125C6.71251 0.125 4.51871 1.0337 2.9012 2.6512C1.2837 4.26871 0.375 6.46251 0.375 8.75C0.375 13.4375 3.57375 17.3694 5.92313 19.625H2.25C1.95163 19.625 1.66548 19.7435 1.4545 19.9545C1.24353 20.1655 1.125 20.4516 1.125 20.75C1.125 21.0484 1.24353 21.3345 1.4545 21.5455C1.66548 21.7565 1.95163 21.875 2.25 21.875H15.75C16.0484 21.875 16.3345 21.7565 16.5455 21.5455C16.7565 21.3345 16.875 21.0484 16.875 20.75C16.875 20.4516 16.7565 20.1655 16.5455 19.9545C16.3345 19.7435 16.0484 19.625 15.75 19.625ZM2.625 8.75C2.625 7.05925 3.29665 5.43774 4.49219 4.24219C5.68774 3.04665 7.30925 2.375 9 2.375C10.6908 2.375 12.3123 3.04665 13.5078 4.24219C14.7034 5.43774 15.375 7.05925 15.375 8.75C15.375 11.8728 13.5 14.6909 11.9344 16.5041C11.0405 17.5308 10.0586 18.4776 9 19.3334C7.94136 18.4776 6.9595 17.5308 6.06562 16.5041C4.5 14.6909 2.625 11.8728 2.625 8.75ZM9 12.875C9.81585 12.875 10.6134 12.6331 11.2917 12.1798C11.9701 11.7266 12.4988 11.0823 12.811 10.3286C13.1232 9.57482 13.2049 8.74542 13.0457 7.94525C12.8866 7.14508 12.4937 6.41008 11.9168 5.83318C11.3399 5.25629 10.6049 4.86342 9.80475 4.70426C9.00458 4.5451 8.17518 4.62679 7.42143 4.939C6.66769 5.25121 6.02345 5.77992 5.57019 6.45827C5.11693 7.13663 4.875 7.93415 4.875 8.75C4.87624 9.84364 5.31124 10.8921 6.08455 11.6654C6.85787 12.4388 7.90636 12.8738 9 12.875ZM9 6.875C9.37084 6.875 9.73335 6.98497 10.0417 7.19099C10.35 7.39702 10.5904 7.68986 10.7323 8.03247C10.8742 8.37508 10.9113 8.75208 10.839 9.1158C10.7666 9.47951 10.588 9.8136 10.3258 10.0758C10.0636 10.338 9.72951 10.5166 9.3658 10.589C9.00208 10.6613 8.62508 10.6242 8.28247 10.4823C7.93986 10.3404 7.64702 10.1 7.44099 9.79169C7.23497 9.48335 7.125 9.12084 7.125 8.75C7.125 8.25272 7.32254 7.77581 7.67417 7.42417C8.02581 7.07254 8.50272 6.875 9 6.875Z" fill="black"/>
</svg>
