<svg width="20" height="21" viewBox="0 0 20 21" fill="none" xmlns="http://www.w3.org/2000/svg">
<path d="M18.5584 0.953099C18.3071 0.781176 18.0176 0.673063 17.7151 0.638107C17.4126 0.603151 17.1061 0.642405 16.8222 0.752474C15.5312 1.25497 12.9222 2.09685 10 2.09685C7.07781 2.09685 4.46875 1.2531 3.17781 0.752474C2.89375 0.642337 2.58713 0.60308 2.28448 0.638099C1.98183 0.673119 1.69228 0.781361 1.44087 0.953458C1.18947 1.12555 0.983784 1.35632 0.841625 1.62579C0.699467 1.89526 0.625113 2.19531 0.625 2.49997V7.72841C0.625 11.1634 1.55313 14.4081 3.23875 16.8643C5.01344 19.4509 7.41437 20.875 10 20.875C12.5856 20.875 14.9866 19.4509 16.7612 16.8662C18.4469 14.4062 19.375 11.1653 19.375 7.73029V2.49997C19.3749 2.19518 19.3004 1.89502 19.1582 1.62548C19.0159 1.35594 18.81 1.12515 18.5584 0.953099ZM17.125 7.73029C17.125 10.7153 16.3366 13.5081 14.9059 15.5931C13.5625 17.5478 11.8216 18.625 10 18.625C8.17844 18.625 6.4375 17.5478 5.09406 15.5931C3.66344 13.5081 2.875 10.7153 2.875 7.73029V3.04279C4.43031 3.6006 7.06281 4.34966 10 4.34966C12.9372 4.34966 15.5697 3.59966 17.125 3.04279V7.73029ZM13.4997 13.6253C13.6871 13.8573 13.7746 14.1542 13.7432 14.4508C13.7117 14.7474 13.5638 15.0193 13.3319 15.2068C12.386 15.963 11.211 16.3749 10 16.3749C8.78902 16.3749 7.61404 15.963 6.66813 15.2068C6.43823 15.0187 6.29212 14.7472 6.26166 14.4517C6.2312 14.1561 6.31888 13.8606 6.50556 13.6294C6.69223 13.3983 6.96275 13.2504 7.25807 13.218C7.55339 13.1856 7.84954 13.2714 8.08187 13.4565C8.62751 13.8894 9.30352 14.125 10 14.125C10.6965 14.125 11.3725 13.8894 11.9181 13.4565C12.1503 13.2693 12.4473 13.1818 12.7438 13.2135C13.0404 13.2451 13.3123 13.3933 13.4997 13.6253ZM10.9272 10.2962C10.766 10.0452 10.7111 9.74045 10.7745 9.44896C10.838 9.15746 11.0147 8.90312 11.2656 8.74185C11.8076 8.39471 12.4269 8.18688 13.0685 8.13683C13.7102 8.08678 14.3542 8.19607 14.9434 8.45497C15.2177 8.57258 15.434 8.79432 15.5448 9.0714C15.6555 9.34849 15.6517 9.65822 15.5341 9.93247C15.4165 10.2067 15.1947 10.423 14.9176 10.5338C14.6405 10.6446 14.3308 10.6407 14.0566 10.5231C13.841 10.4305 13.6096 10.3802 13.375 10.375C13.0599 10.3816 12.752 10.4712 12.4825 10.6347C12.3582 10.7146 12.2193 10.7693 12.0738 10.7956C11.9284 10.8219 11.7791 10.8192 11.6347 10.7878C11.4903 10.7563 11.3534 10.6967 11.232 10.6124C11.1106 10.5281 11.007 10.4206 10.9272 10.2962ZM6.625 10.375C6.39033 10.3803 6.15891 10.4309 5.94344 10.524C5.80764 10.5823 5.66171 10.6132 5.51396 10.615C5.36622 10.6169 5.21956 10.5896 5.08237 10.5347C4.80528 10.424 4.58354 10.2077 4.46594 9.93341C4.34833 9.65916 4.34449 9.34942 4.45525 9.07234C4.56601 8.79525 4.78231 8.57352 5.05656 8.45591C5.64522 8.19577 6.2891 8.08531 6.93081 8.13438C7.57252 8.18346 8.19211 8.39053 8.73438 8.73716C8.85866 8.81719 8.96596 8.92091 9.05016 9.0424C9.13436 9.16389 9.19381 9.30078 9.2251 9.44525C9.2564 9.58972 9.25893 9.73894 9.23256 9.88438C9.20619 10.0298 9.15143 10.1687 9.07141 10.2929C8.99138 10.4172 8.88766 10.5245 8.76617 10.6087C8.64467 10.6929 8.50778 10.7524 8.36332 10.7837C8.21885 10.815 8.06963 10.8175 7.92418 10.7911C7.77874 10.7648 7.63991 10.71 7.51562 10.63C7.24607 10.4688 6.93903 10.3809 6.625 10.375Z" fill="black"/>
</svg>
