<svg width="24" height="16" viewBox="0 0 24 16" fill="none" xmlns="http://www.w3.org/2000/svg">
<path d="M11.7352 10.7131C12.6775 9.92111 13.3533 8.85849 13.6711 7.66934C13.989 6.4802 13.9334 5.22208 13.5119 4.0656C13.0904 2.90913 12.3234 1.91027 11.315 1.20447C10.3066 0.498683 9.10548 0.120117 7.8746 0.120117C6.64371 0.120117 5.44261 0.498683 4.43418 1.20447C3.42575 1.91027 2.65879 2.90913 2.23731 4.0656C1.81583 5.22208 1.76024 6.4802 2.07805 7.66934C2.39587 8.85849 3.07173 9.92111 4.01397 10.7131C2.54264 11.3784 1.26758 12.4116 0.311784 13.7131C0.13525 13.9537 0.0615074 14.2545 0.10678 14.5494C0.152052 14.8444 0.312631 15.1092 0.553191 15.2858C0.79375 15.4623 1.09459 15.536 1.38952 15.4908C1.68445 15.4455 1.94931 15.2849 2.12585 15.0444C2.78748 14.1407 3.65281 13.4058 4.65163 12.8992C5.65046 12.3926 6.75464 12.1286 7.8746 12.1286C8.99455 12.1286 10.0987 12.3926 11.0976 12.8992C12.0964 13.4058 12.9617 14.1407 13.6233 15.0444C13.7999 15.285 14.0648 15.4457 14.3598 15.4911C14.6548 15.5365 14.9558 15.4628 15.1965 15.2862C15.4372 15.1097 15.5979 14.8448 15.6432 14.5498C15.6886 14.2547 15.6149 13.9538 15.4383 13.7131C14.482 12.4118 13.2067 11.3786 11.7352 10.7131ZM4.1246 6.12498C4.1246 5.3833 4.34453 4.65828 4.75659 4.0416C5.16864 3.42491 5.75431 2.94426 6.43953 2.66044C7.12476 2.37661 7.87876 2.30234 8.60618 2.44704C9.33361 2.59173 10.0018 2.94889 10.5262 3.47333C11.0507 3.99778 11.4078 4.66597 11.5525 5.3934C11.6972 6.12082 11.623 6.87482 11.3391 7.56005C11.0553 8.24527 10.5747 8.83094 9.95798 9.243C9.3413 9.65505 8.61628 9.87498 7.8746 9.87498C6.88003 9.87498 5.92621 9.4799 5.22295 8.77663C4.51968 8.07337 4.1246 7.11955 4.1246 6.12498ZM23.4465 15.2815C23.3274 15.3691 23.1922 15.4323 23.0487 15.4675C22.9051 15.5028 22.7561 15.5094 22.61 15.487C22.4639 15.4646 22.3236 15.4137 22.1972 15.3371C22.0709 15.2605 21.9608 15.1598 21.8733 15.0406C21.2101 14.1387 20.3444 13.4051 19.3459 12.8987C18.3475 12.3923 17.2441 12.1273 16.1246 12.125C15.8262 12.125 15.5401 12.0065 15.3291 11.7955C15.1181 11.5845 14.9996 11.2984 14.9996 11C14.9996 10.7016 15.1181 10.4155 15.3291 10.2045C15.5401 9.99351 15.8262 9.87498 16.1246 9.87498C16.6576 9.87403 17.1843 9.75947 17.6695 9.53893C18.1548 9.3184 18.5874 8.99695 18.9386 8.59603C19.2899 8.19511 19.5516 7.72392 19.7063 7.21388C19.8611 6.70384 19.9054 6.16666 19.8362 5.63817C19.767 5.10967 19.5859 4.602 19.3051 4.149C19.0242 3.69599 18.65 3.30806 18.2074 3.01107C17.7648 2.71408 17.264 2.51485 16.7383 2.42667C16.2127 2.33849 15.6743 2.36337 15.159 2.49967C15.0151 2.54131 14.8643 2.55378 14.7155 2.53635C14.5667 2.51893 14.4228 2.47196 14.2924 2.39819C14.162 2.32443 14.0477 2.22537 13.9561 2.10682C13.8645 1.98826 13.7975 1.85261 13.759 1.70781C13.7206 1.56301 13.7114 1.41199 13.7321 1.26361C13.7528 1.11523 13.8029 0.972471 13.8795 0.843721C13.9561 0.714972 14.0577 0.60282 14.1782 0.513849C14.2988 0.424878 14.4359 0.36088 14.5815 0.325609C15.8991 -0.0235164 17.2963 0.0864135 18.5431 0.637301C19.7899 1.18819 20.812 2.1472 21.4411 3.35644C22.0701 4.56569 22.2687 5.95309 22.0041 7.29025C21.7395 8.6274 21.0274 9.8346 19.9852 10.7131C21.4566 11.3784 22.7316 12.4116 23.6874 13.7131C23.8627 13.9533 23.9357 14.2531 23.8906 14.547C23.8454 14.8409 23.6858 15.105 23.4465 15.2815Z" fill="black"/>
</svg>
