<svg width="10" height="9" viewBox="0 0 10 9" fill="none" xmlns="http://www.w3.org/2000/svg">
<path d="M4.9999 0.28125C4.27726 0.281096 3.56669 0.466572 2.93631 0.819896C2.30594 1.17322 1.77689 1.68255 1.39988 2.29905C1.02287 2.91555 0.810549 3.61857 0.78326 4.34069C0.755972 5.06282 0.914635 5.77985 1.24404 6.42305L0.820211 7.68985C0.773734 7.82775 0.766699 7.9759 0.7999 8.11759C0.8331 8.25928 0.905216 8.38888 1.00812 8.49178C1.11102 8.59468 1.24062 8.6668 1.38231 8.7C1.524 8.7332 1.67215 8.72617 1.81005 8.67969L3.07685 8.25742C3.64483 8.54739 4.27116 8.70481 4.90874 8.71787C5.54633 8.73092 6.17857 8.59925 6.75795 8.33277C7.33732 8.06629 7.84874 7.67194 8.25376 7.17935C8.65877 6.68676 8.94685 6.10876 9.09632 5.4888C9.24579 4.86885 9.25276 4.22308 9.11672 3.60004C8.98068 2.977 8.70516 2.39291 8.31089 1.89169C7.91661 1.39046 7.41383 0.985142 6.84035 0.706207C6.26687 0.427272 5.63761 0.281978 4.9999 0.28125ZM4.9999 7.78125C4.42307 7.78147 3.85637 7.62963 3.35693 7.34102C3.28572 7.29971 3.20488 7.27788 3.12255 7.27774C3.0721 7.27783 3.02199 7.28601 2.97412 7.30195L1.81045 7.68985L2.19834 6.52617C2.21934 6.46318 2.22672 6.39644 2.21998 6.33037C2.21325 6.26431 2.19256 6.20043 2.15927 6.14297C1.79755 5.51764 1.6523 4.79041 1.74607 4.0741C1.83984 3.3578 2.16738 2.69246 2.67788 2.1813C3.18837 1.67015 3.85329 1.34175 4.56947 1.24706C5.28566 1.15237 6.01307 1.29668 6.63887 1.65759C7.26467 2.01851 7.75387 2.57587 8.03057 3.24319C8.30728 3.91051 8.35602 4.6505 8.16925 5.34836C7.98247 6.04621 7.57061 6.66292 6.99756 7.10281C6.42451 7.5427 5.72231 7.78118 4.9999 7.78125Z" fill="#E5004C"/>
</svg>
