<svg width="10" height="8" viewBox="0 0 10 8" fill="none" xmlns="http://www.w3.org/2000/svg">
<path d="M9.37522 2.3281C9.37589 2.6257 9.31754 2.92047 9.20356 3.19538C9.08957 3.47028 8.92221 3.71985 8.71116 3.92966L5.22288 7.46951C5.1938 7.49903 5.15914 7.52248 5.12091 7.53849C5.08269 7.55449 5.04166 7.56273 5.00022 7.56273C4.95878 7.56273 4.91775 7.55449 4.87953 7.53849C4.8413 7.52248 4.80664 7.49903 4.77756 7.46951L1.28928 3.92966C0.864003 3.5049 0.624878 2.9286 0.624512 2.32753C0.624146 1.72646 0.862568 1.14986 1.28733 0.724585C1.71209 0.299306 2.28839 0.0601812 2.88946 0.0598149C3.49053 0.0594486 4.06713 0.297871 4.49241 0.722632L5.00022 1.19724L5.51155 0.721069C5.82891 0.405283 6.23272 0.190602 6.67199 0.104128C7.11126 0.0176542 7.56631 0.0632641 7.97968 0.2352C8.39306 0.407135 8.74622 0.697689 8.9946 1.07018C9.24297 1.44267 9.37542 1.8804 9.37522 2.3281Z" fill="#CC4E00"/>
</svg>
