<svg width="10" height="9" viewBox="0 0 10 9" fill="none" xmlns="http://www.w3.org/2000/svg">
<path d="M9.15193 3.98637L7.39412 5.50317L7.92966 7.77153C7.95921 7.89467 7.9516 8.0238 7.9078 8.14262C7.86399 8.26143 7.78595 8.3646 7.68354 8.43909C7.58113 8.51358 7.45895 8.55604 7.33241 8.56112C7.20588 8.5662 7.08068 8.53366 6.97263 8.46762L4.99998 7.25356L3.02615 8.46762C2.91811 8.53328 2.79306 8.56551 2.66675 8.56024C2.54043 8.55498 2.4185 8.51246 2.3163 8.43803C2.21411 8.36361 2.13622 8.26061 2.09244 8.14201C2.04866 8.02341 2.04095 7.8945 2.07029 7.77153L2.60779 5.50317L0.849976 3.98637C0.754389 3.90376 0.685259 3.79482 0.651219 3.67315C0.617179 3.55148 0.619737 3.42248 0.658575 3.30226C0.697413 3.18204 0.770809 3.07592 0.869596 2.99716C0.968384 2.9184 1.08818 2.8705 1.21404 2.85942L3.51873 2.67348L4.40779 0.521918C4.45591 0.40466 4.53782 0.304359 4.64309 0.233769C4.74836 0.163179 4.87225 0.125488 4.999 0.125488C5.12575 0.125488 5.24964 0.163179 5.35491 0.233769C5.46018 0.304359 5.54209 0.40466 5.59021 0.521918L6.47888 2.67348L8.78357 2.85942C8.90967 2.87008 9.02982 2.91772 9.12897 2.99637C9.22812 3.07502 9.30185 3.18118 9.34093 3.30155C9.38001 3.42192 9.3827 3.55114 9.34866 3.67303C9.31462 3.79492 9.24537 3.90406 9.14958 3.98676L9.15193 3.98637Z" fill="#FFB300"/>
</svg>
